<?xml version="1.0" standalone="no"?>
<!DOCTYPE svg PUBLIC "-//W3C//DTD SVG 20010904//EN"
 "http://www.w3.org/TR/2001/REC-SVG-20010904/DTD/svg10.dtd">
<svg version="1.0" xmlns="http://www.w3.org/2000/svg"
 width="980.000000pt" height="956.000000pt" viewBox="0 0 980.000000 956.000000"
 preserveAspectRatio="xMidYMid meet">

<g transform="translate(0.000000,956.000000) scale(0.100000,-0.100000)"
fill="#000000" stroke="none">
<path d="M2375 9534 c-411 -92 -692 -481 -645 -895 22 -196 95 -344 240 -489
105 -105 194 -162 321 -204 200 -67 439 -49 624 48 33 17 63 32 66 34 4 1 -5
-21 -20 -50 -25 -50 -26 -61 -26 -203 1 -390 120 -882 305 -1260 128 -264 239
-399 406 -496 221 -129 548 -228 924 -279 85 -12 164 -23 175 -25 18 -4 42
-110 253 -1122 128 -615 231 -1127 228 -1138 -7 -23 -49 -555 -67 -835 -19
-286 -17 -640 3 -721 66 -261 345 -637 924 -1244 280 -294 535 -539 595 -574
193 -111 417 -90 580 56 119 108 181 292 149 448 -25 125 -58 174 -249 370
-274 281 -643 691 -943 1047 l-98 116 0 63 c0 83 27 481 49 728 16 179 20 196
41 213 46 37 52 33 222 -177 214 -264 454 -527 557 -610 36 -29 94 -67 129
-84 269 -135 923 -337 1922 -595 218 -56 259 -61 349 -46 381 64 543 523 283
803 -54 57 -126 106 -192 130 -25 9 -202 57 -395 107 -608 159 -1264 353
-1448 430 -75 31 -82 37 -210 178 -140 156 -487 557 -502 582 -14 23 -313
1744 -303 1748 28 12 240 -93 335 -164 195 -148 310 -363 444 -828 51 -174 73
-220 143 -284 203 -185 527 -94 607 170 28 90 22 158 -26 331 -181 656 -549
1115 -1110 1387 -221 107 -438 175 -695 219 -224 38 -338 44 -620 35 -414 -13
-743 -10 -910 10 -287 34 -573 100 -704 162 -70 33 -96 66 -171 218 -118 243
-199 549 -226 860 -21 247 -38 297 -130 387 -91 90 -228 128 -346 96 -29 -8
-53 -12 -53 -10 0 3 15 22 33 43 98 115 166 292 174 457 21 383 -204 713 -567
834 -83 28 -111 32 -225 35 -93 3 -150 -1 -200 -12z"/>
<path d="M5259 8510 c-215 -25 -412 -122 -570 -279 -184 -183 -281 -415 -282
-676 -1 -124 9 -194 45 -305 101 -316 371 -564 704 -647 107 -26 333 -24 448
5 170 43 328 133 452 256 258 259 348 628 237 981 -112 356 -430 618 -808 664
-99 12 -128 12 -226 1z"/>
<path d="M47 7703 c-40 -3 -47 -7 -43 -21 3 -9 127 -534 276 -1167 149 -632
273 -1158 276 -1167 5 -17 48 -18 717 -18 l713 0 237 1183 c131 650 238 1185
237 1190 0 7 -2319 7 -2413 0z m1386 -253 c38 -72 70 -130 73 -130 2 0 33 59
69 130 l65 130 115 0 114 0 68 -130 c37 -71 70 -130 73 -130 3 0 34 57 70 128
l65 127 68 3 c38 2 67 -1 67 -7 0 -5 -45 -97 -101 -205 l-101 -196 52 -96 52
-96 -18 -94 c-10 -52 -20 -94 -23 -94 -4 0 -35 55 -70 122 l-64 121 -89 -177
-88 -176 85 -170 c48 -94 90 -170 94 -170 5 0 19 20 32 44 13 25 25 43 27 41
2 -2 -15 -97 -38 -212 l-42 -208 -80 -154 -81 -154 36 -72 c33 -67 35 -75 25
-118 -9 -46 -11 -47 -47 -47 -34 0 -39 3 -60 47 l-23 48 -24 -48 -24 -47 -70
0 c-39 0 -70 3 -70 6 0 4 25 54 56 111 30 57 54 111 52 121 -6 30 -169 344
-176 338 -3 -4 -45 -82 -93 -173 l-87 -167 59 -118 59 -118 -70 0 -70 0 -23
47 -24 46 -28 -46 -27 -47 -70 0 -70 0 62 117 61 117 -88 173 c-48 95 -90 173
-93 173 -3 0 -45 -78 -95 -173 l-89 -172 61 -118 61 -117 -72 0 -73 0 -18 40
c-10 23 -22 43 -27 46 -4 3 -18 -15 -30 -40 -33 -69 -51 -61 -71 30 -16 73
-16 76 4 118 l21 42 -60 120 c-54 107 -64 140 -111 339 -28 121 -54 231 -57
245 -3 15 6 5 21 -24 l27 -49 89 171 c49 95 89 176 89 181 0 6 -40 87 -89 182
l-89 172 -32 -64 c-18 -35 -48 -93 -68 -129 l-36 -64 -23 92 -23 92 56 105 55
104 -98 193 c-54 105 -99 196 -101 200 -2 4 28 8 67 8 l71 0 62 -125 c35 -69
65 -125 69 -125 3 0 34 56 70 125 l64 125 120 0 120 0 64 -125 c36 -69 67
-125 71 -125 3 0 29 48 59 108 82 167 63 152 194 152 l112 0 68 -130z"/>
<path d="M653 7349 l-90 -174 91 -177 c49 -98 91 -176 92 -175 1 1 42 80 91
175 l90 173 -85 167 c-46 92 -88 171 -92 176 -5 4 -48 -70 -97 -165z"/>
<path d="M1237 7497 c-8 -13 -49 -92 -91 -176 l-77 -152 88 -169 c48 -94 91
-170 95 -170 4 0 46 78 94 173 l86 172 -89 173 c-88 169 -90 172 -106 149z"/>
<path d="M1667 7351 c-48 -92 -87 -173 -87 -179 0 -6 40 -88 89 -183 l89 -172
90 179 90 179 -87 168 c-48 92 -90 169 -92 172 -3 2 -44 -71 -92 -164z"/>
<path d="M907 6857 c-48 -94 -88 -175 -87 -179 0 -4 40 -84 89 -179 l89 -171
91 176 92 176 -91 175 c-50 96 -92 175 -93 175 -1 0 -42 -78 -90 -173z"/>
<path d="M1413 6856 l-90 -176 90 -176 89 -177 62 116 c34 63 75 143 91 176
l29 61 -29 61 c-16 33 -57 113 -91 176 l-62 116 -89 -177z"/>
<path d="M654 6364 l-91 -175 87 -170 c48 -94 91 -171 95 -171 4 0 47 77 95
171 l87 171 -90 172 c-49 95 -90 174 -91 175 -1 1 -43 -76 -92 -173z"/>
<path d="M1666 6365 l-90 -174 29 -62 c16 -33 57 -113 91 -176 l61 -115 90
173 91 174 -89 177 c-49 98 -90 178 -92 178 -1 0 -42 -79 -91 -175z"/>
<path d="M1157 6360 l-88 -169 80 -158 c44 -87 85 -166 93 -175 11 -15 23 3
102 156 l88 172 -86 172 c-48 95 -90 172 -94 172 -4 0 -47 -76 -95 -170z"/>
</g>
</svg>
