<?xml version="1.0" standalone="no"?>
<!DOCTYPE svg PUBLIC "-//W3C//DTD SVG 20010904//EN"
 "http://www.w3.org/TR/2001/REC-SVG-20010904/DTD/svg10.dtd">
<svg version="1.0" xmlns="http://www.w3.org/2000/svg"
 width="512.000000pt" height="512.000000pt" viewBox="0 0 512.000000 512.000000"
 preserveAspectRatio="xMidYMid meet">

<g transform="translate(0.000000,512.000000) scale(0.100000,-0.100000)"
fill="#000000" stroke="none">
<path d="M1644 4869 c-28 -5 -64 -13 -79 -19 l-28 -11 34 -25 c52 -38 97 -103
119 -173 60 -190 -32 -396 -218 -489 -70 -34 -83 -37 -161 -37 -100 0 -169 26
-241 91 l-42 39 4 -135 c4 -110 10 -150 31 -215 66 -201 228 -377 422 -458 70
-29 195 -57 258 -57 40 0 47 4 69 38 14 20 54 69 88 107 143 158 306 283 491
376 l98 49 8 47 c4 27 8 93 7 148 -4 452 -416 798 -860 724z"/>
<path d="M1308 4719 c-46 -38 -48 -49 -5 -50 75 -1 75 -1 -38 -178 -58 -91
-105 -168 -105 -171 0 -9 76 -60 87 -60 7 1 263 397 271 419 6 16 -78 60 -125
66 -43 5 -52 2 -85 -26z"/>
<path d="M3816 4729 c-85 -12 -197 -45 -271 -78 -224 -102 -429 -313 -514
-529 l-21 -52 73 0 c620 -2 1179 -348 1446 -895 38 -77 75 -155 83 -174 l14
-34 53 54 c70 73 156 202 196 297 64 152 96 344 80 486 l-7 67 -43 -40 c-59
-55 -113 -87 -187 -112 -53 -18 -79 -20 -163 -16 -121 5 -198 33 -294 106
-291 219 -306 650 -29 851 l38 27 -58 16 c-123 35 -269 44 -396 26z"/>
<path d="M4364 4545 c-66 -35 -99 -58 -98 -68 1 -9 39 -84 84 -166 l83 -149
50 39 c105 84 178 101 222 53 62 -67 20 -163 -98 -225 l-65 -33 24 -55 c14
-30 27 -57 30 -60 9 -10 95 42 145 86 51 47 109 148 109 193 0 30 -53 122
-119 206 l-44 56 -50 -5 c-27 -4 -74 -20 -104 -37 -30 -17 -56 -30 -57 -28
-11 15 -46 76 -46 81 0 2 32 24 71 48 l71 42 -24 19 c-12 10 -37 27 -54 37
l-32 19 -98 -53z"/>
<path d="M240 4191 c-50 -26 -82 -85 -77 -139 3 -24 7 -45 9 -48 4 -3 256 111
266 121 9 8 -22 48 -51 65 -40 25 -102 25 -147 1z"/>
<path d="M333 3989 l-121 -60 73 -167 c40 -92 254 -583 475 -1092 222 -509
550 -1262 730 -1675 l327 -750 316 -3 c175 -1 317 1 317 4 0 3 -323 626 -717
1383 -395 757 -839 1610 -988 1895 -148 286 -274 521 -280 522 -5 1 -65 -25
-132 -57z"/>
<path d="M2971 3779 c-225 -20 -453 -107 -651 -247 -36 -25 -108 -89 -160
-141 -185 -186 -309 -416 -366 -681 -21 -101 -30 -333 -15 -442 78 -585 522
-1053 1095 -1153 115 -20 335 -20 451 1 412 71 784 352 965 729 97 203 134
368 134 600 0 180 -14 265 -69 432 -195 585 -766 957 -1384 902z m303 -315
c241 -62 444 -266 506 -510 27 -104 27 -254 0 -358 -50 -197 -192 -373 -370
-459 -283 -137 -594 -85 -811 135 -138 141 -203 301 -202 503 0 131 17 205 76
325 33 69 58 102 132 175 118 118 213 170 370 201 82 16 210 11 299 -12z"/>
<path d="M2993 3265 c-147 -45 -223 -159 -193 -287 11 -42 24 -63 66 -104 50
-50 52 -52 30 -62 -101 -46 -154 -164 -122 -274 20 -70 88 -137 167 -164 74
-26 233 -26 306 -1 64 22 140 88 164 142 27 60 25 160 -4 216 -21 39 -84 99
-119 112 -8 3 3 18 31 43 141 122 88 326 -98 378 -68 19 -170 20 -228 1z m177
-150 c48 -43 46 -128 -3 -172 -35 -32 -55 -34 -97 -13 -70 36 -100 104 -70
160 26 49 127 64 170 25z m18 -420 c27 -29 32 -42 32 -84 0 -60 -26 -96 -79
-111 -52 -14 -96 -3 -131 32 -67 66 -40 182 50 216 34 13 86 -9 128 -53z"/>
</g>
</svg>
