<?xml version="1.0" standalone="no"?>
<!DOCTYPE svg PUBLIC "-//W3C//DTD SVG 20010904//EN"
 "http://www.w3.org/TR/2001/REC-SVG-20010904/DTD/svg10.dtd">
<svg version="1.0" xmlns="http://www.w3.org/2000/svg"
 width="450.000000pt" height="444.000000pt" viewBox="0 0 450.000000 444.000000"
 preserveAspectRatio="xMidYMid meet">

<g transform="translate(0.000000,444.000000) scale(0.100000,-0.100000)"
fill="#000000" stroke="none">
<path d="M1255 4021 c-152 -20 -292 -72 -421 -156 -149 -97 -243 -203 -327
-370 -155 -307 -124 -686 78 -971 50 -69 162 -181 228 -226 156 -106 313 -157
512 -165 116 -5 141 -3 231 20 183 46 311 112 436 227 198 181 301 413 306
691 8 384 -239 745 -608 892 -123 48 -312 73 -435 58z m200 -40 l40 -9 -55 -1
c-30 0 -70 -5 -87 -10 -31 -9 -93 4 -93 19 0 10 152 10 195 1z m-181 -50 c8
-7 20 -35 26 -64 6 -29 14 -59 16 -68 3 -10 -19 -30 -70 -63 -41 -26 -108 -77
-148 -115 l-73 -68 -120 -12 c-66 -6 -132 -14 -147 -18 l-28 -5 0 63 c1 127
63 202 238 288 136 68 267 94 306 62z m622 -127 c22 -19 33 -33 24 -33 -8 0
-40 23 -70 51 -60 57 -25 43 46 -18z m93 -117 c104 -107 170 -220 202 -345 30
-119 27 -142 -26 -191 -24 -22 -52 -41 -61 -41 -9 0 -39 21 -68 46 -28 26 -78
65 -111 87 -33 22 -62 42 -64 43 -2 2 -10 41 -18 86 -8 45 -27 123 -43 172
-16 50 -26 94 -21 99 18 18 137 96 147 96 6 1 35 -23 63 -52z m-474 7 c44 -12
105 -34 136 -48 56 -24 57 -26 83 -98 32 -89 56 -191 56 -238 0 -29 -10 -44
-67 -100 -38 -36 -94 -87 -126 -114 l-58 -49 -162 51 c-89 28 -174 54 -189 58
-24 5 -30 15 -48 73 -11 36 -30 115 -42 175 l-21 109 67 64 c37 36 98 84 134
108 77 51 91 51 237 9z m-850 -152 c-1 -72 -6 -103 -34 -182 -18 -52 -39 -124
-47 -160 -13 -54 -24 -73 -66 -118 l-50 -53 6 93 c10 171 55 308 142 439 25
38 46 69 47 69 1 0 2 -39 2 -88z m1569 -494 c-2 -123 -21 -207 -72 -323 -49
-110 -122 -221 -122 -186 0 6 0 12 0 14 0 1 -9 29 -18 62 -18 59 -18 60 4 100
32 57 82 211 90 276 6 50 10 58 40 74 18 10 41 26 50 36 10 11 20 19 23 19 3
0 5 -33 5 -72z m-969 22 c55 -17 132 -42 171 -56 l71 -26 26 -85 c15 -46 35
-123 44 -170 l18 -85 -77 -73 c-42 -40 -101 -90 -131 -110 -50 -33 -60 -36
-99 -30 -148 23 -297 85 -323 134 -24 48 -53 130 -75 216 l-21 80 75 72 c79
77 191 163 210 163 6 0 56 -14 111 -30z m-601 -78 c39 -37 88 -82 109 -99 34
-27 40 -39 54 -104 8 -41 30 -116 49 -166 40 -106 39 -110 -30 -167 -55 -45
-71 -43 -134 18 -79 75 -154 199 -198 330 -28 82 -30 132 -7 166 19 29 75 90
82 90 2 0 36 -31 75 -68z m1300 -394 c18 -89 18 -126 0 -153 -43 -66 -238
-183 -364 -219 -146 -40 -179 -29 -204 68 -9 36 -16 71 -16 79 0 8 25 31 56
51 30 21 90 71 133 112 l78 74 99 1 c55 0 122 6 149 13 28 7 53 11 56 9 4 -1
9 -17 13 -35z m-1109 -265 l60 -56 -50 33 c-81 54 -110 80 -88 80 10 -1 45
-26 78 -57z m556 -148 c33 -14 31 -14 -61 -13 -91 0 -93 1 -41 9 30 5 57 12
60 14 6 7 4 7 42 -10z"/>
<path d="M3135 3943 c-241 -37 -462 -173 -617 -380 -53 -70 -65 -92 -102 -184
-51 -129 -67 -213 -67 -364 0 -180 27 -301 104 -455 45 -91 164 -223 277 -308
106 -81 154 -104 305 -148 28 -8 59 -19 70 -24 11 -5 45 -11 75 -13 61 -3 58
-5 -54 -36 -270 -75 -506 -274 -622 -526 -60 -131 -85 -248 -85 -400 0 -324
159 -608 441 -791 441 -285 1049 -178 1357 239 124 168 183 354 184 572 0 380
-249 734 -619 878 -85 33 -229 66 -285 67 -47 0 -41 15 10 25 129 24 320 127
429 232 62 60 154 175 181 228 28 55 70 169 84 230 7 28 16 56 22 63 13 17 13
306 0 335 -6 12 -22 58 -36 102 -54 173 -95 245 -211 372 -57 63 -186 163
-256 198 -56 28 -220 81 -280 90 -77 11 -228 11 -305 -2z m240 -53 c50 -6 122
-20 162 -31 l72 -22 -69 -76 c-92 -101 -210 -253 -293 -379 -37 -56 -70 -102
-72 -102 -3 0 -25 10 -50 22 -33 16 -44 26 -39 38 44 101 50 278 15 429 -25
108 -26 107 59 116 30 3 64 7 75 9 39 6 51 6 140 -4z m-380 -117 c24 -92 31
-257 15 -334 -7 -33 -16 -62 -21 -64 -4 -3 -43 9 -86 26 -43 17 -136 53 -206
79 l-128 47 48 56 c50 58 113 116 173 158 36 25 170 98 181 99 4 0 14 -30 24
-67z m850 -80 c94 -77 211 -226 241 -307 6 -17 4 -18 -17 -13 -13 4 -74 10
-134 13 -240 14 -455 -49 -556 -163 l-31 -35 -46 26 c-26 14 -46 31 -44 37 11
42 231 335 357 475 l67 74 49 -26 c27 -15 78 -51 114 -81z m-1053 -358 l147
-58 -37 -44 c-58 -70 -195 -168 -327 -232 -164 -81 -162 -80 -169 -34 -15 86
22 284 76 403 l30 68 66 -23 c37 -12 133 -48 214 -80z m1325 -73 c40 -22 63
-210 44 -356 -11 -81 -56 -246 -67 -246 -2 0 -62 48 -133 108 -144 121 -291
228 -428 312 l-93 58 41 37 c48 43 110 73 189 91 70 17 414 13 447 -4z m-1037
-52 c22 -11 40 -22 40 -24 0 -3 -31 -67 -69 -143 -112 -224 -187 -429 -231
-628 -30 -136 -26 -128 -50 -115 -47 25 -165 149 -217 228 -54 81 -122 234
-123 277 0 15 13 25 48 39 75 30 258 123 315 159 73 47 148 113 198 175 23 28
44 52 46 52 2 0 22 -9 43 -20z m170 -85 c28 -14 50 -27 50 -29 0 -3 -7 -33
-16 -68 -13 -49 -15 -91 -11 -188 8 -167 44 -297 157 -557 l58 -131 -27 -6
c-66 -14 -223 -18 -299 -7 -82 12 -185 43 -254 77 -28 13 -38 24 -38 41 0 78
76 352 146 525 41 103 171 368 181 368 2 0 26 -11 53 -25z m233 -136 c166
-103 455 -325 535 -411 l23 -25 -44 -59 c-51 -68 -152 -167 -217 -211 -47 -32
-190 -107 -194 -101 -2 2 -29 64 -61 138 -134 311 -178 513 -144 670 6 27 13
50 15 50 2 0 41 -23 87 -51z m147 -1021 c250 -99 425 -324 516 -663 35 -132
37 -129 -43 -96 -72 30 -236 102 -240 105 -2 1 -14 42 -28 92 -51 175 -139
330 -239 422 -93 84 -194 127 -351 148 l-50 7 35 8 c19 5 64 11 98 13 35 3 66
6 68 9 9 8 183 -25 234 -45z m40 32 c8 -5 11 -10 5 -10 -5 0 -17 5 -25 10 -8
5 -10 10 -5 10 6 0 17 -5 25 -10z m-355 -89 c29 -6 26 -8 -55 -49 -186 -94
-398 -275 -507 -434 -128 -186 -192 -372 -194 -562 0 -57 -3 -75 -9 -59 -32
78 -36 357 -7 468 48 185 174 368 352 514 93 76 148 112 187 121 40 10 191 10
233 1z m748 -161 c80 -74 141 -158 179 -245 45 -101 88 -329 66 -350 -4 -4
-22 -5 -40 -1 -33 6 -34 8 -47 77 -44 238 -155 469 -292 609 l-54 54 63 -42
c34 -24 91 -69 125 -102z m-588 94 c22 -15 56 -42 75 -60 l36 -34 -137 -137
c-329 -333 -542 -678 -639 -1037 l-26 -99 -56 54 c-39 39 -61 71 -77 113 -82
220 -27 494 150 746 67 95 211 238 316 313 86 61 277 166 303 167 9 0 33 -12
55 -26z m-665 -48 c0 -2 -8 -10 -17 -17 -16 -13 -17 -12 -4 4 13 16 21 21 21
13z m899 -230 c28 -56 59 -134 70 -174 l20 -74 -162 -161 c-272 -271 -397
-479 -448 -746 l-12 -64 -91 6 c-105 7 -169 26 -217 66 l-34 29 23 91 c89 349
316 714 652 1049 134 133 123 134 199 -22z m-1209 -328 c-24 -116 -21 -307 6
-408 4 -14 4 -22 0 -18 -31 28 -73 338 -46 338 9 0 11 15 7 58 -2 31 0 78 6
105 l10 47 14 -37 c10 -28 10 -50 3 -85z m1862 -37 c2 -36 -1 -65 -7 -67 -6
-3 -10 21 -10 59 -1 34 -4 87 -7 117 l-7 55 14 -50 c8 -27 16 -79 17 -114z
m-395 3 c173 -76 252 -103 324 -111 l59 -6 -4 -31 c-3 -17 -8 -51 -11 -76 -3
-25 -15 -78 -27 -118 -18 -61 -25 -73 -46 -79 -70 -17 -369 43 -641 129 l-104
33 73 83 c58 66 234 232 246 232 1 0 60 -25 131 -56z m-323 -358 c262 -82 446
-121 554 -117 28 1 52 -2 52 -8 0 -5 -23 -44 -51 -86 -63 -93 -179 -212 -227
-232 -69 -29 -235 13 -377 94 -101 58 -255 164 -255 175 0 31 126 218 147 218
7 0 78 -20 157 -44z m-1036 -203 c-1 -5 6 -23 15 -40 24 -45 15 -41 -17 7 -20
31 -23 40 -11 40 8 0 14 -3 13 -7z m813 -108 c149 -99 279 -162 380 -183 l82
-18 -72 -32 c-102 -46 -206 -71 -269 -66 -62 6 -197 46 -263 80 l-47 23 9 48
c8 45 60 223 64 223 2 0 54 -34 116 -75z m-153 -276 c39 -18 72 -37 72 -42 0
-5 -8 -6 -18 -3 -9 3 -38 8 -63 11 -53 6 -158 35 -209 58 -34 15 -34 15 55 13
79 -2 99 -7 163 -37z"/>
<path d="M1214 2071 c-209 -49 -414 -172 -529 -319 -97 -123 -183 -302 -200
-417 -3 -22 -10 -65 -15 -95 -17 -109 -3 -239 41 -382 98 -313 353 -552 674
-633 162 -40 300 -39 467 4 326 84 587 347 675 678 35 133 37 336 5 458 -44
167 -118 303 -233 430 -108 118 -277 219 -444 265 -114 32 -327 37 -441 11z
m256 -21 c0 -3 -25 -10 -55 -16 -41 -7 -61 -7 -77 2 -21 11 -18 13 32 16 77 4
100 4 100 -2z m-154 -44 c22 -7 40 -51 50 -124 5 -39 5 -40 -51 -72 -31 -18
-91 -60 -133 -93 l-76 -61 -86 -3 c-47 -2 -98 -5 -115 -7 -40 -6 -101 -15
-117 -18 -16 -4 -13 28 9 96 21 67 115 160 206 204 74 36 164 69 212 78 16 3
31 7 33 9 5 4 42 0 68 -9z m370 -21 c73 -26 135 -61 188 -107 l38 -33 -48 -32
c-27 -18 -58 -39 -69 -47 -18 -14 -29 -12 -115 21 -52 19 -130 43 -172 51 -66
14 -78 20 -78 37 0 11 -6 43 -14 72 l-14 52 27 4 c70 12 198 3 257 -18z m305
-141 c8 -9 5 -11 -9 -7 -11 2 -37 23 -58 45 l-39 41 48 -33 c26 -19 52 -40 58
-46z m-1211 -64 c-6 -11 -16 -20 -22 -20 -6 0 -3 9 7 20 10 11 20 20 22 20 2
0 -1 -9 -7 -20z m1263 -18 c104 -99 217 -313 233 -443 6 -45 4 -49 -40 -94
l-45 -48 -58 52 c-32 29 -95 78 -140 108 -46 31 -83 64 -84 72 -3 56 -36 179
-70 258 l-18 41 67 47 c77 53 106 54 155 7z m-533 13 c14 -3 36 -8 50 -11 21
-4 62 -20 188 -71 25 -10 78 -162 96 -274 5 -34 2 -40 -87 -127 -51 -50 -116
-110 -146 -133 -51 -40 -55 -42 -85 -30 -17 7 -85 30 -151 53 -66 22 -121 41
-122 42 -4 3 -40 142 -49 186 -3 14 -7 33 -10 42 -3 9 -7 27 -10 40 -10 53
-14 74 -19 100 -4 22 3 33 43 66 26 22 79 60 117 86 73 47 96 51 185 31z
m-792 -127 c2 -31 -6 -59 -27 -98 -47 -90 -84 -208 -98 -320 -4 -30 -16 -56
-36 -79 l-30 -35 6 95 c3 52 10 105 15 119 5 14 10 28 11 33 8 60 64 191 114
265 23 34 42 62 43 62 0 0 1 -19 2 -42z m383 -70 c3 -5 12 -42 18 -81 7 -40
26 -118 42 -175 16 -56 29 -106 29 -111 0 -4 -33 -32 -72 -62 -40 -30 -108
-87 -151 -128 l-77 -74 -28 24 c-15 13 -68 63 -118 112 -88 86 -92 91 -88 128
9 95 47 225 90 311 17 32 25 37 74 47 31 6 94 14 140 17 47 3 87 8 89 10 7 6
45 -7 52 -18z m859 -293 c36 -25 92 -70 127 -100 56 -50 62 -59 58 -88 -12
-89 -43 -194 -82 -279 -33 -72 -39 -79 -74 -88 -82 -22 -279 -34 -295 -17 -3
2 -7 17 -10 33 -7 40 -50 209 -68 269 -9 28 -16 51 -16 52 0 1 28 24 63 51 34
28 98 87 142 131 44 45 82 81 86 81 3 0 34 -20 69 -45z m334 -155 c-6 -184
-48 -323 -142 -465 l-46 -70 -14 54 c-13 54 -13 55 22 130 55 119 77 190 92
301 5 32 15 44 89 110 1 0 0 -27 -1 -60z m-912 -16 c73 -25 138 -51 144 -57
23 -23 72 -192 98 -338 3 -22 -6 -36 -52 -81 -79 -76 -152 -129 -171 -124 -16
5 -49 12 -110 22 -45 8 -163 50 -223 80 -53 27 -68 53 -114 198 l-25 81 78 75
c73 71 220 189 235 190 3 0 66 -21 140 -46z m-540 -208 c18 -12 31 -33 38 -60
6 -22 24 -80 41 -128 22 -64 28 -92 20 -105 -12 -23 -117 -108 -133 -108 -18
0 -125 131 -163 200 -43 76 -85 187 -92 241 -6 50 10 113 38 148 l21 27 102
-99 c55 -54 113 -106 128 -116z m-325 107 c-3 -10 -5 -4 -5 12 0 17 2 24 5 18
2 -7 2 -21 0 -30z m1508 -353 c4 -6 9 -33 12 -61 5 -43 2 -55 -23 -90 -64 -93
-294 -215 -442 -235 l-48 -6 -23 58 c-12 33 -25 79 -27 104 -5 43 -4 46 32 70
21 14 67 52 102 84 l63 59 112 3 c111 3 186 10 196 19 8 9 40 5 46 -5z m-950
-116 c79 -36 246 -84 294 -84 25 0 29 -6 58 -101 l31 -101 -92 5 c-50 3 -100
8 -111 10 -11 3 -33 8 -50 12 -97 23 -202 69 -289 128 l-59 39 49 42 c27 22
58 51 69 63 11 13 20 23 21 23 1 0 36 -16 79 -36z m1006 -17 c-13 -12 -20 -15
-16 -7 14 26 28 41 33 35 3 -3 -5 -16 -17 -28z"/>
</g>
</svg>
