<?xml version="1.0" standalone="no"?>
<!DOCTYPE svg PUBLIC "-//W3C//DTD SVG 20010904//EN"
 "http://www.w3.org/TR/2001/REC-SVG-20010904/DTD/svg10.dtd">
<svg version="1.0" xmlns="http://www.w3.org/2000/svg"
 width="900.000000pt" height="900.000000pt" viewBox="0 0 900.000000 900.000000"
 preserveAspectRatio="xMidYMid meet">

<g transform="translate(0.000000,900.000000) scale(0.100000,-0.100000)"
fill="#000000" stroke="none">
<path d="M1177 7766 c-58 -21 -88 -49 -113 -105 -14 -30 -36 -203 -144 -1111
-101 -857 -304 -2559 -320 -2690 -133 -1091 -188 -1591 -180 -1619 17 -61 51
-102 104 -127 60 -28 86 -29 149 -8 54 18 97 63 115 119 6 22 39 272 72 555
34 283 77 646 96 805 19 160 43 367 54 460 21 174 67 561 100 833 10 85 21
156 24 159 3 3 8 -6 12 -20 12 -50 38 -45 207 42 87 46 160 81 162 79 2 -2 34
-46 70 -98 92 -129 214 -276 332 -400 l99 -103 -309 -155 -309 -155 -25 32
c-30 38 -44 39 -89 5 -37 -29 -43 -57 -18 -85 14 -16 8 -21 -86 -74 -56 -31
-104 -64 -107 -73 -7 -18 25 -81 48 -95 13 -8 43 5 130 56 108 62 115 64 129
47 134 -161 598 -713 672 -799 l98 -114 -143 -69 c-370 -181 -652 -293 -809
-322 -49 -9 -62 -33 -48 -87 6 -22 18 -43 26 -46 21 -8 168 31 312 83 154 56
313 126 542 236 96 47 185 88 196 92 18 5 31 -4 71 -51 47 -55 50 -62 61 -145
24 -167 103 -396 193 -553 230 -405 609 -682 1074 -787 115 -25 415 -36 537
-19 117 17 297 63 408 106 218 83 484 248 620 384 l85 86 95 -47 c122 -61 279
-123 353 -139 71 -15 81 -8 82 63 0 51 -1 52 -35 61 -91 23 -223 73 -316 120
l-102 52 39 65 c22 35 47 69 57 74 38 21 384 255 486 328 59 44 114 77 120 75
7 -3 70 -47 141 -99 214 -156 431 -291 615 -383 41 -21 90 -50 107 -66 35 -30
88 -49 140 -49 18 0 55 -9 83 -20 28 -11 59 -20 70 -20 38 0 56 80 23 99 -22
12 -23 11 65 40 144 48 334 180 540 376 67 65 124 116 126 114 77 -108 121
-187 146 -263 12 -38 13 -38 57 -33 25 2 52 12 61 21 14 14 14 21 -2 73 -25
79 -59 144 -121 234 l-53 75 71 85 c38 46 95 117 125 157 l56 74 92 -509 c51
-279 98 -528 105 -552 17 -62 60 -106 120 -126 60 -20 105 -14 166 21 45 26
64 53 81 118 10 34 -34 284 -373 2153 -212 1162 -391 2126 -399 2141 -19 37
-57 71 -296 268 -113 93 -386 318 -608 501 -222 183 -413 335 -425 337 -12 3
-269 19 -572 36 -302 17 -813 47 -1135 65 -322 19 -821 48 -1110 65 -480 27
-729 42 -945 55 -229 14 -891 52 -1385 80 -146 8 -296 17 -335 20 -45 3 -83 0
-108 -9z m516 -121 c232 -14 735 -43 1117 -65 382 -22 769 -44 860 -50 91 -5
514 -30 940 -55 1127 -66 1782 -104 1974 -116 103 -6 176 -15 185 -22 38 -29
700 -581 953 -794 241 -203 279 -238 287 -271 6 -20 31 -152 56 -292 25 -140
68 -376 95 -525 27 -148 99 -544 160 -880 61 -335 133 -731 160 -880 200
-1088 290 -1603 285 -1625 -6 -29 -51 -60 -87 -60 -34 0 -65 25 -77 63 -5 17
-177 956 -382 2086 l-373 2054 -221 185 c-249 210 -320 270 -593 501 -106 90
-196 161 -199 158 -3 -4 9 -228 26 -499 17 -271 78 -1240 136 -2153 57 -913
112 -1767 121 -1897 17 -252 16 -263 -30 -293 -20 -14 -27 -13 -74 10 -62 30
-56 4 -77 360 -9 149 -31 518 -51 820 -19 303 -79 1259 -134 2125 -54 866
-100 1593 -102 1615 l-3 40 -275 17 c-283 17 -848 50 -1610 93 -239 14 -905
52 -1480 85 -575 33 -1164 67 -1310 75 -146 8 -337 20 -425 25 -88 5 -176 10
-196 10 l-36 0 -7 -62 c-4 -35 -25 -211 -46 -393 -43 -353 -78 -650 -135
-1130 -20 -165 -53 -448 -75 -630 -22 -181 -67 -559 -100 -840 -33 -280 -76
-640 -95 -800 -19 -159 -64 -534 -100 -833 -35 -298 -69 -551 -75 -562 -36
-66 -160 -41 -160 32 0 13 18 174 40 358 22 184 49 409 60 500 11 91 42 356
70 590 28 234 60 502 71 595 10 94 24 204 29 245 5 41 30 248 55 460 25 212
74 628 110 925 166 1392 195 1637 195 1650 0 7 12 27 26 44 20 24 34 31 60 31
19 0 225 -11 457 -25z m362 -300 c347 -20 649 -38 671 -41 l42 -5 37 -92 c73
-180 263 -527 364 -666 l18 -25 -56 -52 c-151 -139 -606 -514 -624 -514 -7 0
-276 325 -374 451 -127 164 -253 340 -368 512 -62 93 -104 147 -115 147 -24 0
-84 -43 -88 -63 -9 -45 432 -653 726 -1002 l110 -130 -67 -48 c-209 -152 -736
-487 -766 -487 -7 0 -43 59 -79 132 -37 73 -72 135 -78 139 -14 9 -79 -18 -95
-38 -15 -19 -11 -28 67 -185 34 -66 60 -122 58 -123 -2 -2 -69 -37 -150 -80
-124 -64 -148 -74 -148 -58 0 10 27 246 60 523 33 278 72 597 85 710 13 113
43 358 65 545 22 187 43 363 46 390 7 70 13 95 22 95 4 0 291 -16 637 -35z
m1266 -75 c184 -10 385 -22 447 -26 62 -3 115 -10 117 -14 6 -10 -264 -298
-454 -484 l-143 -138 -53 79 c-29 43 -81 128 -116 189 -65 112 -199 385 -199
403 0 14 12 14 401 -9z m1049 -60 c96 -5 270 -14 385 -20 298 -15 284 -12 322
-68 18 -26 54 -75 82 -109 l50 -61 -106 -124 c-151 -176 -362 -408 -372 -408
-12 0 -89 89 -301 345 -95 116 -198 237 -229 270 -87 96 -140 167 -134 182 4
11 19 13 67 9 33 -4 140 -11 236 -16z m998 -26 c34 -3 62 -8 62 -11 0 -6 -130
-163 -135 -163 -7 0 -135 169 -135 179 0 9 53 8 208 -5z m497 -59 c132 -8 337
-19 455 -26 118 -6 218 -14 221 -18 3 -3 18 -208 33 -456 14 -247 28 -465 31
-483 4 -30 2 -32 -18 -27 -49 15 -149 66 -244 125 l-101 63 57 86 c115 172
231 383 231 421 0 24 -75 64 -97 51 -7 -4 -40 -55 -73 -113 -45 -83 -173 -290
-221 -361 -9 -12 -363 222 -484 320 -136 111 -268 240 -259 256 4 7 39 49 76
95 81 96 37 89 393 67z m-1769 -175 c28 -30 142 -165 254 -300 111 -135 222
-266 247 -291 l43 -45 -172 -170 c-95 -93 -218 -209 -273 -259 -55 -49 -112
-100 -126 -113 l-27 -24 -149 150 c-169 170 -310 327 -437 486 l-87 109 249
251 c137 138 271 275 298 304 l49 54 40 -49 c22 -26 63 -73 91 -103z m1506
-373 c76 -59 231 -165 385 -262 35 -22 63 -43 63 -47 0 -20 -457 -607 -473
-608 -5 0 -54 42 -110 93 -56 51 -192 171 -302 267 -110 96 -230 204 -267 238
l-67 64 120 131 c66 73 171 191 232 262 l112 131 112 -102 c62 -57 150 -132
195 -167z m1643 3 c157 -133 285 -242 285 -244 0 -54 -217 -566 -241 -566 -10
0 -74 184 -100 289 -14 57 -29 95 -39 101 -18 10 -87 -3 -103 -19 -21 -21 41
-239 126 -443 l37 -88 -54 -89 c-78 -128 -110 -175 -113 -165 -2 8 -93 1421
-93 1452 0 6 2 12 5 12 3 0 133 -108 290 -240z m-3942 -220 c88 -125 430 -507
579 -646 l55 -52 -96 -75 c-177 -137 -351 -260 -523 -368 l-76 -48 -204 207
c-183 187 -393 411 -426 453 -11 14 6 31 125 125 146 116 384 315 470 396 28
26 55 48 60 48 4 0 20 -18 36 -40z m4418 -182 c24 -21 30 -41 63 -228 20 -113
43 -238 51 -279 8 -40 15 -75 15 -77 0 -2 -24 -4 -54 -4 -64 0 -66 -3 -66
-105 0 -136 -33 -345 -77 -479 l-15 -49 -19 44 c-10 24 -38 96 -62 159 -25 63
-79 188 -121 278 l-75 164 69 137 c76 154 144 308 185 424 l27 77 27 -20 c14
-11 38 -30 52 -42z m-2873 -56 c59 -54 184 -165 277 -247 248 -218 355 -316
355 -327 0 -6 -28 -42 -62 -82 -161 -183 -327 -368 -395 -438 l-75 -78 -37 29
c-100 80 -356 301 -514 444 -98 89 -197 178 -218 197 l-40 35 93 80 c51 44
185 171 298 282 113 111 207 202 208 203 2 0 52 -44 110 -98z m1424 5 c125
-77 261 -139 308 -142 l35 -3 11 -183 c7 -101 22 -336 34 -521 l21 -337 -26
-40 -27 -40 -171 116 c-354 240 -425 288 -522 362 -115 87 -255 208 -255 221
0 5 64 89 143 187 78 98 187 238 241 311 55 72 100 132 102 132 2 0 50 -28
106 -63z m-3707 -449 c39 -44 179 -192 313 -329 l243 -248 -68 -39 c-147 -85
-345 -189 -619 -324 l-287 -142 -96 100 c-153 157 -411 478 -411 511 0 4 51
37 113 73 211 121 535 333 667 436 30 24 60 43 65 43 6 0 42 -37 80 -81z
m1660 -284 c167 -151 336 -299 480 -419 72 -59 134 -112 140 -117 6 -5 -35
-52 -105 -123 -110 -110 -114 -113 -139 -101 -42 21 -179 64 -276 87 -109 25
-410 37 -524 21 l-74 -11 -129 117 c-71 64 -157 142 -191 173 l-61 55 175 116
c96 64 251 175 344 246 l170 129 40 -36 c22 -21 90 -82 150 -137z m1582 -126
c93 -73 275 -200 637 -443 48 -33 91 -66 93 -73 14 -35 -352 -417 -539 -561
-15 -11 -35 -1 -160 84 -224 153 -768 563 -776 586 -2 5 54 71 125 147 133
143 317 350 368 414 l29 37 57 -53 c32 -30 106 -92 166 -138z m1548 27 c38
-82 89 -206 116 -275 26 -69 56 -147 68 -173 l21 -48 -41 -61 c-23 -33 -74
-94 -113 -136 -76 -80 -254 -224 -268 -216 -4 3 -8 14 -8 24 0 10 -7 23 -16
28 -13 7 -19 59 -34 303 -28 424 -32 382 43 486 35 48 83 120 108 160 24 40
47 69 50 65 4 -4 37 -74 74 -157z m671 -1102 c-31 -63 -58 -114 -61 -112 -2 3
-31 81 -65 174 -34 94 -90 248 -126 344 -35 96 -64 181 -64 188 0 8 8 30 19
51 59 115 115 337 126 494 4 46 9 94 12 108 3 14 50 -219 111 -553 l105 -577
-57 -117z m-4511 546 l50 -45 -84 -28 c-178 -58 -371 -166 -521 -291 -80 -67
-207 -196 -236 -240 -9 -14 -23 -25 -30 -23 -10 3 -213 177 -402 344 l-46 42
215 104 c222 108 532 270 679 356 l85 49 120 -111 c66 -61 143 -132 170 -157z
m1565 -70 c174 -138 520 -395 658 -489 67 -46 122 -87 122 -92 0 -4 -9 -12
-20 -18 -11 -6 -69 -57 -128 -113 -129 -121 -212 -192 -212 -180 0 5 -27 57
-60 116 -98 176 -210 316 -365 455 -69 61 -236 179 -289 203 l-27 13 98 98
c54 54 100 98 103 98 3 0 57 -41 120 -91z m1602 -13 c15 -11 21 -66 43 -411
14 -219 24 -399 22 -401 -7 -7 -204 55 -310 97 -56 22 -154 68 -218 101 l-116
61 102 88 c120 104 318 307 395 407 30 39 57 71 60 71 3 0 13 -5 22 -13z
m1053 -334 c57 -158 113 -311 124 -341 l22 -54 -35 -52 c-77 -116 -278 -348
-289 -334 -17 20 -149 250 -206 359 -79 149 -161 325 -160 343 0 7 38 38 84
71 101 70 235 193 295 271 36 47 45 54 53 40 5 -9 55 -145 112 -303z m-4160
197 l60 -61 -25 -16 c-84 -56 -202 -197 -275 -328 -21 -38 -39 -70 -41 -72 -1
-2 -33 -10 -71 -19 -37 -8 -111 -35 -163 -60 -78 -38 -108 -59 -171 -122 l-76
-77 -72 68 -73 68 55 77 c154 218 359 402 569 509 67 34 200 92 213 93 6 1 37
-26 70 -60z m1101 -19 c265 -133 503 -351 645 -590 l42 -71 -39 -40 c-21 -22
-62 -58 -90 -79 l-50 -40 -56 54 c-85 83 -224 155 -425 221 -7 2 -22 28 -35
57 -61 143 -169 325 -237 397 l-32 34 58 59 c34 34 66 58 79 58 11 0 74 -27
140 -60z m-576 -75 c68 -14 146 -25 175 -25 l52 0 40 -57 c22 -32 75 -119 118
-193 42 -74 88 -149 101 -167 13 -17 24 -37 24 -43 0 -6 -35 -47 -78 -93 -156
-163 -215 -257 -215 -342 -1 -43 9 -69 73 -190 40 -77 102 -188 137 -246 l64
-106 -30 -79 c-51 -131 -156 -297 -268 -423 l-48 -53 -40 11 c-57 15 -146 17
-331 7 -89 -5 -181 -6 -205 -2 -42 6 -49 12 -105 89 -120 163 -209 334 -245
469 l-13 47 49 63 c135 172 189 249 222 315 33 67 35 77 31 141 -7 94 -48 175
-169 335 l-98 130 66 96 c86 125 182 240 241 289 l47 40 99 1 c55 1 102 4 105
6 10 11 85 4 201 -20z m-1595 -335 c61 -52 111 -95 113 -96 2 -1 -16 -33 -39
-70 -106 -173 -193 -420 -222 -628 -12 -86 -14 -90 -44 -102 l-30 -13 -90 102
c-133 151 -705 838 -701 842 2 2 142 73 313 158 l309 154 141 -126 c77 -70
190 -169 250 -221z m4599 94 c4 -9 4 -19 2 -21 -8 -8 -26 8 -26 23 0 19 16 18
24 -2z m1121 -662 c-7 -8 -126 207 -158 288 l-39 95 49 92 48 91 51 -281 c28
-155 50 -283 49 -285z m-863 82 c36 -61 73 -122 82 -136 17 -26 17 -26 -46
-75 -35 -28 -97 -73 -138 -101 l-75 -51 -7 27 c-7 25 -49 672 -48 737 0 23 19
-6 84 -130 46 -88 112 -210 148 -271z m-1273 358 c167 -94 375 -181 546 -227
55 -15 105 -28 111 -30 11 -3 24 -101 24 -181 0 -40 -4 -45 -117 -151 -65 -60
-156 -143 -203 -184 -81 -71 -360 -296 -388 -313 -15 -9 -24 -3 -258 191
l-161 134 -6 74 c-7 82 -27 181 -59 290 l-20 69 39 36 c22 19 100 90 174 157
136 124 207 182 223 183 4 0 47 -22 95 -48z m-3322 -232 l22 -15 -25 -72 c-43
-126 -56 -393 -24 -477 9 -25 8 -33 -13 -55 -64 -69 -119 -173 -158 -298 -11
-38 -22 -74 -25 -81 -2 -7 -21 5 -49 31 l-45 44 -12 132 c-24 272 27 544 154
813 l41 87 56 -47 c31 -26 66 -54 78 -62z m5320 -245 c49 -82 103 -173 118
-201 l29 -52 -44 -58 c-65 -87 -195 -247 -211 -261 -12 -10 -23 2 -64 68 -28
44 -93 146 -146 227 -52 81 -103 161 -113 178 l-19 31 71 74 c80 83 222 257
223 273 0 6 15 -20 33 -59 18 -38 73 -137 123 -220z m-2639 173 c71 -182 103
-358 103 -568 0 -190 -39 -419 -79 -464 -15 -16 -83 -56 -96 -56 -3 0 -8 21
-12 48 -17 121 -86 280 -149 345 l-33 34 20 58 c10 31 24 96 30 144 11 93 5
326 -10 377 -10 31 -9 33 60 80 38 26 79 60 91 76 11 15 24 28 28 28 3 0 24
-46 47 -102z m2208 -524 c198 -309 214 -334 214 -342 0 -10 -163 -169 -250
-244 -102 -87 -218 -167 -305 -210 l-80 -39 -8 118 c-4 65 -15 243 -25 396
l-17 278 63 34 c59 33 231 151 262 181 8 8 17 14 21 14 4 0 60 -83 125 -186z
m-862 34 c4 -73 17 -289 29 -480 12 -192 21 -348 19 -348 -43 0 -672 412 -672
440 0 4 51 47 113 96 109 86 325 271 437 373 30 28 58 51 61 51 3 0 9 -60 13
-132z m-3977 -83 c17 -8 59 -22 94 -30 35 -8 113 -26 172 -40 60 -14 123 -25
141 -25 31 0 32 -2 49 -67 36 -139 135 -322 243 -450 24 -28 44 -56 44 -62 0
-5 -27 -65 -60 -131 -33 -67 -67 -147 -76 -178 -33 -114 -22 -106 -127 -99
-104 7 -199 31 -336 85 -92 37 -94 38 -121 92 -16 30 -54 91 -87 136 -66 91
-77 112 -132 243 l-40 93 29 89 c36 110 89 225 138 301 20 32 37 58 38 58 0 0
15 -7 31 -15z m2975 -186 c73 -60 134 -113 135 -117 1 -4 -17 -21 -40 -38 -82
-60 -334 -234 -340 -234 -2 0 8 40 24 89 30 93 63 254 74 354 4 31 8 57 10 57
2 0 64 -50 137 -111z m-615 3 c41 -60 85 -157 113 -251 21 -67 22 -79 10 -125
-20 -85 -85 -208 -155 -295 -36 -46 -83 -108 -105 -139 -37 -54 -43 -59 -127
-90 -118 -44 -205 -61 -349 -68 l-120 -7 -1 49 c-2 83 -74 280 -134 365 l-18
26 51 49 c115 112 232 303 273 444 l18 65 191 -3 c138 -1 206 2 246 12 30 8
60 14 65 15 6 0 24 -20 42 -47z m1990 -772 c13 0 31 -6 38 -14 24 -23 -18 -27
-72 -6 -46 18 -47 19 -23 28 14 5 26 6 28 1 2 -5 15 -9 29 -9z m-4064 -162
c72 -24 110 -31 177 -32 47 0 97 2 112 7 22 6 28 3 34 -15 4 -13 7 -31 5 -41
-1 -9 5 -20 13 -23 11 -4 13 -14 10 -34 -4 -16 -1 -31 6 -35 8 -5 4 -11 -12
-19 -36 -18 -32 -65 9 -89 68 -40 256 -96 371 -112 47 -6 64 -17 45 -28 -16
-9 -192 14 -289 38 -240 57 -474 184 -651 352 -66 62 -72 71 -66 100 l5 32 69
-35 c39 -19 111 -49 162 -66z m1853 -52 c-9 -41 -17 -49 -95 -101 -234 -155
-535 -256 -813 -272 -103 -6 -111 -5 -105 11 4 10 7 37 7 60 l0 42 68 12 c38
6 101 25 141 41 78 32 218 112 254 146 19 18 33 20 137 17 132 -3 264 20 352
61 29 14 56 26 59 26 3 1 1 -19 -5 -43z m-1456 -96 c0 -5 -4 -10 -10 -10 -5 0
-10 5 -10 10 0 6 5 10 10 10 6 0 10 -4 10 -10z m276 -105 c38 -14 84 -25 102
-25 31 0 32 -1 32 -46 l0 -47 -61 7 c-65 8 -224 46 -274 66 -91 37 -125 55
-125 65 0 15 64 38 68 25 2 -5 12 -10 22 -10 12 0 20 10 24 34 l7 34 68 -39
c37 -22 99 -51 137 -64z"/>
<path d="M3706 3570 c-26 -5 -54 -11 -62 -14 -17 -7 -18 -30 -1 -44 7 -6 129
-11 312 -13 293 -4 300 -4 300 16 0 17 -13 22 -100 37 -117 20 -379 31 -449
18z"/>
</g>
</svg>
