<?xml version="1.0" standalone="no"?>
<!DOCTYPE svg PUBLIC "-//W3C//DTD SVG 20010904//EN"
 "http://www.w3.org/TR/2001/REC-SVG-20010904/DTD/svg10.dtd">
<svg version="1.0" xmlns="http://www.w3.org/2000/svg"
 width="512.000000pt" height="512.000000pt" viewBox="0 0 512.000000 512.000000"
 preserveAspectRatio="xMidYMid meet">

<g transform="translate(0.000000,512.000000) scale(0.100000,-0.100000)"
fill="#000000" stroke="none">
<path d="M860 3610 c-19 -19 -20 -33 -20 -433 0 -483 -9 -447 108 -447 109 0
102 -30 102 450 0 223 -4 410 -8 416 -26 39 -148 48 -182 14z"/>
<path d="M1139 3611 l-24 -19 0 -417 c0 -482 -9 -445 106 -445 77 0 98 13 100
63 1 18 1 205 1 417 0 384 0 385 -22 402 -32 26 -129 25 -161 -1z"/>
<path d="M3814 3605 l-25 -25 3 -411 c3 -475 -6 -439 109 -439 48 0 72 5 83
16 14 13 16 67 16 434 l0 419 -22 15 c-14 10 -44 16 -81 16 -48 0 -62 -4 -83
-25z"/>
<path d="M4090 3610 c-19 -19 -20 -33 -20 -433 0 -482 -8 -447 107 -447 111 0
103 -33 103 448 0 482 7 452 -105 452 -52 0 -69 -4 -85 -20z"/>
<path d="M692 3398 c-7 -7 -12 -38 -12 -74 0 -61 -1 -63 -27 -66 -28 -3 -28
-4 -31 -80 l-3 -78 31 0 30 0 0 -59 c0 -82 5 -91 51 -91 l39 0 -2 228 -3 227
-30 3 c-17 2 -36 -3 -43 -10z"/>
<path d="M4352 3398 c-13 -13 -18 -401 -6 -432 4 -11 19 -16 44 -16 45 0 50 9
50 90 0 57 1 59 28 62 27 3 27 4 27 78 0 74 0 75 -27 78 -27 3 -28 6 -28 58 0
31 -5 64 -10 75 -12 22 -59 26 -78 7z"/>
<path d="M1390 3180 l0 -70 96 0 95 0 -6 -42 c-4 -24 -7 -160 -8 -303 l-2
-260 27 -55 c18 -36 42 -65 70 -85 82 -57 194 -174 227 -234 21 -40 56 -82
106 -126 49 -44 76 -76 80 -96 12 -54 55 -148 100 -222 25 -39 48 -89 52 -109
l6 -38 327 0 327 0 6 41 c3 23 19 60 35 83 40 56 86 149 108 219 16 50 28 67
92 124 50 45 82 84 102 123 33 65 91 128 200 215 90 73 106 100 120 196 10 70
7 374 -6 512 l-5 57 96 0 95 0 0 70 0 70 -1170 0 -1170 0 0 -70z m1904 -88 c4
-10 33 -63 66 -118 33 -54 60 -110 60 -124 0 -14 -14 -60 -30 -103 -17 -43
-34 -107 -37 -142 l-6 -63 -37 -6 c-43 -7 -85 -36 -105 -75 -9 -19 -27 -31
-57 -40 -24 -7 -91 -44 -150 -83 -106 -70 -108 -70 -163 -66 -62 5 -102 29
-124 73 -12 25 -10 38 20 131 19 57 39 104 46 104 15 0 19 7 27 52 4 25 2 40
-7 50 -8 7 -17 31 -21 53 -34 181 -243 249 -371 121 -34 -35 -46 -55 -56 -102
-7 -33 -19 -65 -26 -72 -23 -23 -8 -102 19 -102 15 -1 68 -161 68 -205 0 -62
-58 -105 -142 -105 -37 0 -59 11 -148 69 -58 38 -123 74 -146 80 -30 8 -47 21
-65 48 -25 39 -77 72 -116 73 -20 0 -23 5 -23 43 0 23 -16 87 -35 142 -19 55
-35 112 -35 126 0 14 23 64 51 110 29 46 58 99 65 117 l14 32 729 0 c699 0
730 -1 735 -18z"/>
</g>
</svg>
