<?xml version="1.0" standalone="no"?>
<!DOCTYPE svg PUBLIC "-//W3C//DTD SVG 20010904//EN"
 "http://www.w3.org/TR/2001/REC-SVG-20010904/DTD/svg10.dtd">
<svg version="1.0" xmlns="http://www.w3.org/2000/svg"
 width="860.000000pt" height="655.000000pt" viewBox="0 0 860.000000 655.000000"
 preserveAspectRatio="xMidYMid meet">
<metadata>
Created by potrace 1.16, written by Peter Selinger 2001-2019
</metadata>
<g transform="translate(0.000000,655.000000) scale(0.100000,-0.100000)"
fill="#000000" stroke="none">
<path d="M4460 6119 c0 -7 -11 -9 -27 -6 -33 6 -85 -26 -109 -68 -9 -16 -31
-45 -47 -63 -37 -39 -49 -99 -49 -249 0 -106 15 -168 54 -225 15 -22 18 -48
18 -181 0 -163 -3 -187 -26 -187 -8 0 -20 -12 -27 -27 -14 -34 -27 -44 -48
-38 -9 3 -22 -1 -28 -9 -7 -8 -28 -20 -46 -26 -19 -6 -49 -28 -67 -48 -31 -34
-37 -53 -77 -235 -29 -131 -42 -211 -38 -237 3 -21 24 -80 47 -130 42 -91 42
-91 31 -155 -6 -36 -21 -95 -33 -132 -15 -46 -21 -90 -20 -136 1 -45 -5 -86
-18 -120 -10 -29 -24 -71 -30 -95 -8 -32 -20 -48 -49 -66 -85 -54 -101 -78
-130 -192 -6 -23 -25 -59 -42 -80 -21 -27 -29 -46 -26 -63 3 -16 -2 -35 -14
-50 -10 -13 -19 -30 -19 -38 0 -8 -11 -29 -24 -46 -13 -18 -36 -57 -51 -87
-15 -30 -53 -98 -84 -150 -30 -52 -75 -137 -98 -189 -24 -52 -54 -109 -68
-127 -30 -40 -32 -54 -5 -54 26 0 25 -10 -6 -71 -14 -28 -38 -87 -54 -132 -68
-193 -94 -231 -200 -302 -67 -44 -147 -131 -232 -250 -50 -71 -149 -240 -178
-305 -29 -66 -48 -90 -70 -90 -22 0 -44 -26 -65 -75 -26 -64 -72 -105 -117
-105 -49 0 -96 -41 -128 -112 -13 -29 -60 -129 -104 -223 l-81 -170 1 -115 c1
-135 13 -186 54 -230 28 -30 34 -32 80 -28 109 11 183 101 249 306 23 70 57
154 76 187 19 33 45 80 57 105 12 24 42 63 66 87 52 49 122 159 122 190 0 28
100 149 158 191 26 18 75 49 109 68 41 23 89 65 141 122 75 81 81 85 96 69 33
-32 87 -13 181 63 127 103 139 106 216 55 20 -13 45 -22 55 -20 15 4 38 -25
109 -133 103 -156 231 -294 310 -332 69 -33 141 -38 192 -12 47 24 99 81 121
131 27 65 92 284 112 378 26 122 44 166 67 160 10 -3 28 -8 41 -12 12 -3 22
-5 23 -3 0 2 4 50 9 108 5 58 12 137 16 175 4 39 14 84 24 100 21 36 40 158
40 257 0 52 6 83 21 115 18 37 21 65 24 215 3 142 7 179 22 208 9 19 18 54 18
78 0 36 3 44 23 47 12 3 34 8 50 11 15 3 58 21 96 40 40 19 85 34 105 34 l36
0 -1 98 c0 53 -7 115 -14 137 -8 22 -15 90 -17 150 -6 201 -8 500 -4 509 3 6
6 60 8 120 1 61 4 123 7 139 2 15 4 70 5 122 1 83 4 97 23 114 36 35 79 36
184 6 80 -23 98 -25 105 -14 30 53 30 53 100 24 35 -15 84 -34 109 -41 75 -23
106 -48 133 -108 41 -88 80 -139 212 -269 67 -67 129 -136 138 -152 8 -17 21
-84 27 -150 7 -66 20 -142 30 -170 15 -43 22 -52 56 -65 22 -8 55 -25 74 -37
65 -41 83 3 25 61 -43 44 -47 61 -4 20 17 -16 51 -63 75 -106 25 -42 51 -82
59 -88 21 -18 45 4 45 41 0 16 4 29 9 29 17 0 20 74 6 149 -20 102 -21 101 25
53 23 -23 50 -42 61 -42 19 0 19 1 3 32 -44 86 -109 171 -187 244 -47 45 -93
97 -102 115 -49 95 -233 412 -270 464 -60 84 -131 149 -264 245 -160 114 -171
124 -171 157 0 63 -6 68 -103 93 -51 12 -145 47 -209 77 -143 66 -192 74 -293
43 -137 -42 -211 -55 -252 -44 -28 7 -47 6 -70 -3 -20 -8 -40 -10 -54 -5 l-23
9 22 5 c13 4 24 17 28 34 3 16 20 59 36 97 22 52 31 93 39 180 5 61 7 122 4
134 -3 12 -1 42 4 65 14 59 3 168 -16 168 -8 0 -28 14 -44 31 -19 21 -34 29
-47 25 -11 -4 -27 2 -40 14 -18 18 -22 18 -30 4 -7 -13 -10 -13 -21 -1 -9 12
-18 13 -41 4 -24 -9 -32 -8 -48 6 -21 19 -62 23 -62 6z m772 -769 c36 -11 85
-33 109 -50 24 -16 65 -37 92 -46 26 -8 47 -19 47 -23 0 -4 -20 -22 -45 -40
-25 -18 -45 -36 -45 -42 0 -12 1 -12 44 6 47 20 81 7 44 -17 -85 -56 -258
-118 -327 -118 -16 0 -22 -3 -15 -10 12 -12 111 9 227 49 81 28 87 28 87 11 0
-24 -100 -90 -187 -124 -58 -22 -244 -69 -249 -63 -1 1 -11 20 -22 42 -48 97
-64 206 -41 290 13 46 69 103 133 135 51 25 68 25 148 0z m-346 -43 c3 -2 -15
-40 -38 -83 -39 -72 -43 -85 -42 -149 0 -57 7 -85 36 -155 20 -46 34 -88 32
-92 -3 -5 -30 -8 -60 -8 -76 0 -68 -17 12 -22 38 -2 69 -9 73 -17 5 -7 2 -29
-5 -49 -7 -20 -13 -49 -14 -64 0 -16 -6 -28 -12 -28 -7 0 -45 16 -84 36 -80
40 -190 58 -219 34 -19 -15 -19 -47 0 -80 13 -24 14 -24 12 20 -2 44 -1 45 31
48 56 6 143 -26 190 -70 36 -33 48 -38 73 -33 35 8 35 4 1 -63 l-27 -52 -60
60 c-33 33 -63 60 -67 60 -22 0 -1 -37 61 -106 92 -103 99 -116 74 -147 l-19
-24 -64 74 c-71 84 -100 105 -100 75 0 -23 41 -81 131 -185 60 -69 69 -85 83
-149 9 -39 14 -73 12 -76 -3 -2 -34 26 -69 63 -63 66 -86 73 -73 22 6 -24 97
-122 139 -150 15 -10 36 -36 48 -58 19 -38 19 -43 5 -92 -8 -29 -22 -61 -30
-72 -14 -20 -16 -19 -102 23 -48 24 -91 39 -95 35 -5 -5 18 -33 51 -62 80 -70
94 -99 86 -175 -3 -32 -8 -61 -10 -64 -10 -10 -67 35 -99 77 -19 25 -72 98
-119 161 -47 63 -120 152 -162 198 -42 45 -90 101 -107 125 -23 31 -29 36 -24
17 21 -72 120 -208 309 -424 48 -54 94 -109 103 -123 9 -13 34 -34 57 -45 l41
-21 -35 -15 c-35 -14 -36 -14 -330 6 -98 7 -103 8 -70 19 19 6 60 17 90 23 74
17 95 29 49 30 -19 0 -94 -16 -165 -35 -71 -20 -157 -40 -191 -45 -66 -9 -203
0 -318 21 -83 16 -84 30 -11 107 47 50 58 70 90 163 20 58 36 115 36 127 0 15
4 20 16 15 13 -5 12 1 -5 35 -40 78 -20 98 28 30 39 -57 100 -114 134 -127 16
-6 47 -11 70 -10 l42 1 -51 13 c-69 17 -108 41 -144 91 -39 55 -65 153 -53
202 l9 37 43 -82 c43 -80 99 -160 83 -118 -4 11 -19 43 -33 70 -47 90 -62 150
-55 219 5 41 2 86 -8 136 -28 130 -23 172 44 374 43 131 67 189 85 206 14 13
25 31 25 40 0 9 11 22 25 28 16 7 23 17 19 27 -8 19 23 32 39 16 6 -6 21 -11
33 -11 17 0 24 -8 29 -32 11 -58 16 -68 30 -68 23 0 54 41 61 79 3 20 12 46
20 57 16 26 78 66 96 62 7 -2 31 11 53 29 116 92 136 102 198 98 32 -2 61 -5
63 -8z m614 -286 c0 -11 -19 -36 -42 -55 -30 -26 -37 -36 -24 -36 16 0 16 -2
6 -16 -22 -25 -44 -33 -162 -59 -62 -14 -133 -33 -157 -42 l-44 -17 -23 29
-23 29 110 28 c128 32 166 48 269 112 41 25 78 46 82 46 4 0 8 -9 8 -19z
m-448 -535 c7 -13 7 -30 -2 -56 -11 -32 -10 -42 10 -79 12 -24 19 -45 16 -48
-9 -10 -66 19 -66 33 0 8 -11 14 -26 14 -21 0 -24 3 -16 13 8 9 8 24 1 51 -10
35 -8 47 17 125 3 11 11 8 30 -10 14 -13 30 -33 36 -43z m-1096 -1057 c61 -35
69 -50 130 -256 42 -141 48 -172 53 -287 4 -84 10 -131 18 -133 17 -6 26 69
18 146 -11 108 -34 208 -81 353 -38 115 -50 141 -74 158 -49 35 -38 43 58 39
48 -2 117 0 154 5 59 7 73 5 130 -17 39 -15 95 -27 148 -31 90 -7 203 -34 283
-69 46 -19 49 -22 43 -51 -15 -75 -72 -109 -160 -94 -28 5 -73 9 -100 9 -27 0
-65 7 -84 15 -19 8 -44 14 -55 14 -11 0 -30 9 -42 20 -14 13 -28 18 -39 14
-21 -8 -16 -40 6 -36 8 1 21 -5 28 -13 7 -8 29 -15 49 -15 41 0 208 -26 261
-40 29 -8 40 -19 62 -66 25 -51 26 -58 12 -79 -11 -17 -12 -29 -4 -49 5 -15
10 -61 10 -103 l0 -76 -66 131 c-60 120 -143 236 -158 221 -3 -3 21 -58 55
-122 56 -108 109 -242 109 -275 0 -7 -35 40 -78 105 -86 129 -113 159 -137
150 -22 -9 -19 -43 15 -174 38 -147 39 -174 2 -108 -15 28 -44 73 -64 100 -52
73 -120 215 -158 330 -33 102 -60 150 -60 108 0 -34 45 -180 88 -285 27 -65
68 -136 123 -215 74 -106 120 -192 119 -226 -1 -6 -16 18 -35 55 -62 119 -81
104 -54 -42 27 -142 20 -273 -17 -307 -14 -13 -29 -23 -34 -23 -17 0 -50 54
-56 92 -4 21 -12 38 -19 38 -17 0 -31 -128 -16 -143 33 -33 -18 -31 -96 4 -23
11 -58 19 -78 19 -39 0 -75 15 -75 30 0 6 14 10 30 10 33 0 75 34 64 51 -9 16
-69 39 -99 39 -44 0 -27 20 48 54 97 44 132 76 156 142 24 64 26 84 8 84 -7 0
-22 -22 -34 -49 -18 -42 -26 -51 -59 -60 -53 -15 -76 -14 -102 5 -32 22 -38
43 -52 174 -14 143 -63 349 -97 412 -20 37 -46 62 -114 108 -114 78 -119 84
-119 132 0 32 7 47 34 74 19 19 43 34 54 34 12 0 23 4 27 9 7 12 55 -4 121
-40z m-186 -196 c126 -67 200 -157 200 -243 0 -45 26 -223 40 -270 13 -44 13
-77 1 -64 -5 5 -16 35 -25 66 -9 31 -20 60 -25 63 -21 12 -21 -19 -2 -78 11
-34 21 -73 22 -87 6 -73 -13 -81 -30 -13 -20 76 -38 103 -146 213 -57 58 -118
126 -137 151 -63 85 -74 187 -23 231 13 11 26 31 30 45 7 28 22 26 95 -14z
m-73 -343 c39 -42 58 -70 51 -73 -8 -3 3 -18 28 -41 50 -43 74 -98 81 -186 5
-73 -13 -145 -37 -145 -8 0 -27 21 -41 48 -26 48 -86 117 -102 117 -5 0 9 -20
31 -45 42 -48 67 -101 52 -110 -19 -12 -74 24 -174 118 -102 93 -108 97 -151
97 -31 0 -45 4 -45 13 0 8 41 99 91 202 l91 188 31 -57 c17 -32 59 -88 94
-126z m858 46 c35 -46 103 -205 126 -295 10 -41 19 -99 18 -130 l0 -56 -55
115 c-80 165 -153 378 -136 395 11 11 22 4 47 -29z m-1037 -357 l43 -18 -29
-43 c-38 -56 -125 -220 -151 -283 -25 -61 -22 -56 82 119 45 76 91 145 103
153 19 12 26 9 82 -45 37 -34 62 -66 62 -78 0 -24 -42 -84 -89 -129 -17 -16
-70 -74 -118 -128 -97 -110 -138 -137 -213 -137 -54 0 -59 -7 -33 -47 16 -24
16 -27 -12 -82 -20 -40 -66 -94 -159 -185 -71 -71 -148 -142 -170 -158 -23
-16 -82 -69 -133 -118 -104 -102 -125 -109 -167 -59 -33 39 -33 67 2 115 15
21 77 120 136 219 163 271 226 349 323 399 18 9 59 47 92 86 53 61 63 81 92
172 34 110 84 219 118 255 24 25 67 23 139 -8z m462 -196 c20 -25 21 -36 16
-96 -5 -59 -4 -68 11 -74 10 -4 30 -19 46 -34 25 -26 27 -32 21 -84 -8 -63 -3
-61 -89 -26 -27 11 -58 22 -67 25 -14 4 -18 17 -18 61 0 49 -4 60 -30 86 l-30
30 28 10 c21 7 33 23 50 69 13 33 27 60 32 60 5 0 18 -12 30 -27z m327 -264
c36 -15 44 -23 37 -37 -4 -9 -10 -51 -14 -92 -5 -47 -20 -106 -40 -155 -17
-44 -45 -129 -61 -190 -42 -153 -56 -179 -98 -183 -31 -3 -41 3 -95 60 -34 35
-76 92 -95 127 l-33 63 45 -27 c53 -30 93 -30 113 1 13 18 9 26 -32 85 -26 35
-73 91 -106 125 -51 52 -57 62 -44 73 12 10 29 7 93 -21 76 -32 78 -34 92 -80
17 -57 31 -62 31 -13 0 47 37 217 62 282 l19 52 41 -25 c22 -14 60 -34 85 -45z
m-1712 -819 l18 -41 -43 -44 c-24 -25 -52 -48 -62 -51 -26 -8 -22 -33 8 -44
25 -10 25 -30 0 -30 -21 0 -89 92 -75 101 7 4 17 6 23 4 14 -5 77 122 76 153
0 13 5 33 12 45 11 21 12 20 18 -15 4 -21 15 -56 25 -78z m-205 -97 c0 -15
-81 -215 -110 -273 -49 -96 -71 -161 -79 -225 l-7 -60 -21 40 c-40 78 -39 93
16 202 27 54 68 140 90 192 23 52 48 103 58 113 16 18 53 25 53 11z"/>
<path d="M4150 4866 c0 -2 16 -24 36 -47 36 -43 34 -60 -5 -39 -34 18 -24 2
45 -73 36 -40 92 -112 124 -162 33 -49 68 -101 79 -115 19 -24 20 -24 21 -4 0
19 -19 52 -133 238 -20 33 -34 62 -31 65 5 6 34 -24 247 -252 118 -127 183
-185 193 -174 6 6 -65 90 -261 306 -81 90 -160 166 -209 202 -69 51 -106 70
-106 55z"/>
<path d="M4520 4194 c6 -14 39 -67 75 -117 55 -77 63 -92 50 -100 -20 -11
-108 0 -154 19 -51 21 -49 9 4 -25 52 -33 61 -36 205 -74 192 -51 199 -46 79
63 -45 41 -106 108 -137 149 -63 88 -87 111 -113 111 -16 0 -17 -4 -9 -26z"/>
<path d="M3854 5913 c-218 -178 -414 -437 -521 -688 l-46 -110 59 -113 c52
-100 60 -110 68 -90 5 13 34 77 66 143 87 185 194 347 323 491 l53 60 39 177
c21 98 36 180 33 182 -2 3 -36 -21 -74 -52z"/>
<path d="M2993 5259 c-4 -16 -11 -19 -27 -14 -46 14 -154 17 -190 5 -154 -50
-247 -262 -186 -423 32 -85 76 -137 149 -174 106 -55 228 -43 327 32 31 24 32
24 49 5 9 -10 47 -29 84 -40 88 -29 205 -98 324 -193 184 -146 337 -235 424
-245 39 -4 43 -2 53 24 15 38 6 79 -35 166 -19 40 -38 97 -42 126 l-8 54 -99
34 c-127 42 -280 121 -374 191 -68 50 -77 61 -117 146 -25 51 -67 130 -95 177
-54 91 -66 100 -181 134 -49 15 -51 15 -56 -5z m122 -43 c47 -21 55 -30 108
-124 31 -56 63 -126 72 -155 9 -30 31 -72 49 -93 38 -45 162 -120 350 -214
l131 -65 43 -70 c53 -87 54 -105 7 -105 -54 0 -116 28 -300 136 -93 55 -186
107 -205 114 -19 8 -52 30 -73 49 -34 30 -41 33 -84 28 -39 -4 -49 -1 -67 17
-21 23 -75 46 -107 46 -10 0 -30 5 -45 10 -26 10 -26 12 -10 28 12 13 31 16
72 15 94 -4 144 37 130 109 -8 45 -56 90 -128 122 -74 32 -78 56 -10 56 50 0
118 -26 141 -53 22 -27 33 -20 17 11 -21 40 -63 75 -133 112 -35 18 -63 39
-63 47 0 19 33 12 105 -21z m-183 -30 c21 -5 30 -15 39 -47 14 -46 13 -48 -51
-69 -36 -12 -40 -11 -78 20 l-41 32 16 34 c20 40 39 45 115 30z m-97 -117 c37
-32 41 -49 29 -121 -6 -32 -12 -39 -55 -57 -60 -26 -61 -26 -98 5 -27 22 -31
32 -31 76 0 60 11 83 53 108 44 27 60 25 102 -11z m-133 -192 c28 -24 41 -46
51 -84 13 -48 12 -54 -4 -69 -47 -42 -129 31 -129 115 0 30 6 48 18 57 23 18
21 18 64 -19z m213 -22 l40 -34 -23 -45 c-20 -43 -24 -46 -61 -46 -67 0 -87
13 -100 65 -7 26 -10 49 -9 51 8 7 94 44 103 43 6 0 28 -15 50 -34z"/>
<path d="M3160 4458 c0 -369 58 -684 186 -1015 47 -123 162 -363 173 -363 3 0
16 18 29 40 l22 40 -51 102 c-112 223 -191 474 -225 713 -13 96 -15 155 -9
300 13 333 15 307 -25 327 -20 10 -50 21 -68 24 l-32 7 0 -175z"/>
<path d="M2810 4184 c0 -32 45 -257 75 -372 50 -191 115 -364 205 -547 70
-144 203 -369 258 -440 l21 -27 17 34 16 34 -47 80 c-150 253 -268 558 -325
837 -21 107 -22 109 -121 260 -54 84 -99 147 -99 141z"/>
<path d="M4735 2074 c-3 -20 -2 -41 3 -46 15 -15 235 -66 359 -84 132 -18 463
-17 497 3 14 8 -26 12 -160 16 -138 4 -207 11 -303 32 -99 20 -310 83 -377
111 -7 3 -14 -10 -19 -32z"/>
<path d="M4610 1870 c-15 -63 -15 -63 85 -84 197 -43 306 -46 480 -14 128 24
128 34 0 37 -108 2 -325 46 -531 106 -19 6 -23 1 -34 -45z"/>
</g>
</svg>
