<?xml version="1.0" standalone="no"?>
<!DOCTYPE svg PUBLIC "-//W3C//DTD SVG 20010904//EN"
 "http://www.w3.org/TR/2001/REC-SVG-20010904/DTD/svg10.dtd">
<svg version="1.0" xmlns="http://www.w3.org/2000/svg"
 width="980.000000pt" height="890.000000pt" viewBox="0 0 980.000000 890.000000"
 preserveAspectRatio="xMidYMid meet">
<metadata>
Created by potrace 1.16, written by Peter Selinger 2001-2019
</metadata>
<g transform="translate(0.000000,890.000000) scale(0.100000,-0.100000)"
fill="#000000" stroke="none">
<path d="M4125 8833 c-16 -2 -88 -10 -160 -19 -684 -81 -1412 -357 -1985 -752
-949 -654 -1607 -1646 -1839 -2773 -37 -180 -70 -416 -78 -566 l-6 -113 -29 0
-28 0 0 -160 0 -160 30 0 c30 0 30 -1 30 -54 0 -129 42 -440 89 -662 188 -887
645 -1694 1306 -2307 335 -311 657 -536 1045 -731 804 -405 1665 -554 2513
-436 861 120 1658 486 2314 1062 121 106 362 352 464 473 543 645 890 1419
1008 2250 68 481 51 953 -50 1419 -29 133 -122 478 -151 558 l-13 38 -45 -30
c-36 -24 -56 -30 -99 -30 -47 0 -80 13 -295 114 -132 63 -284 135 -336 161
-52 25 -102 44 -111 42 -9 -3 -57 -31 -106 -62 l-90 -58 42 -91 c140 -302 262
-714 295 -991 18 -147 24 -640 11 -842 -34 -535 -230 -1094 -554 -1583 -89
-134 -166 -230 -329 -407 -186 -203 -335 -337 -523 -468 -475 -333 -1006 -534
-1605 -607 -161 -20 -640 -16 -820 6 -404 49 -709 138 -1066 311 -281 135
-481 260 -674 421 -143 119 -416 395 -524 529 -303 378 -553 901 -650 1361
-128 606 -105 1233 65 1807 100 336 368 846 573 1092 171 204 452 480 631 620
253 198 750 447 1075 540 153 43 370 87 550 112 191 26 718 25 900 0 377 -54
659 -134 972 -278 432 -198 803 -467 1117 -811 l130 -143 1 -55 0 -56 -264
-172 c-245 -160 -266 -172 -310 -172 l-46 0 -152 153 c-171 172 -265 250 -448
372 -313 210 -681 355 -1065 422 -130 22 -600 25 -745 4 -328 -47 -697 -181
-1008 -365 -242 -144 -535 -398 -710 -616 -319 -396 -541 -913 -592 -1380 -24
-220 -12 -592 26 -777 146 -717 567 -1345 1171 -1749 320 -213 754 -383 1101
-430 250 -33 636 -28 832 12 334 68 714 226 1001 416 590 392 1019 1016 1164
1692 41 192 49 288 49 556 1 223 -2 271 -22 383 -31 168 -78 339 -142 512 -83
221 -96 248 -118 236 -44 -23 -709 -471 -721 -484 -10 -13 -8 -30 13 -96 92
-292 107 -690 36 -1006 -58 -261 -205 -542 -396 -759 -232 -263 -625 -485
-957 -542 -128 -22 -492 -30 -641 -14 -406 41 -839 284 -1113 625 -165 205
-295 477 -347 725 -28 133 -40 381 -28 562 17 247 57 404 158 618 89 187 187
325 343 481 198 197 404 327 664 418 191 67 260 75 592 75 272 0 310 -2 402
-22 135 -29 253 -71 398 -142 141 -69 236 -131 368 -240 l97 -80 0 -65 0 -65
-110 -77 c-61 -43 -185 -126 -277 -185 l-167 -108 -64 0 c-59 0 -71 4 -170 60
-251 140 -445 173 -667 116 -367 -95 -659 -383 -756 -746 -30 -113 -32 -283
-5 -385 51 -191 132 -329 276 -476 158 -161 308 -247 504 -290 159 -35 302
-23 475 40 379 138 663 514 665 881 1 114 -11 220 -24 220 -4 0 -120 -73 -257
-162 -461 -300 -458 -298 -523 -298 l-58 0 -40 53 c-57 75 -72 109 -72 166 l0
50 388 259 c213 142 947 627 1631 1076 l1244 817 71 -3 c66 -4 89 -13 331
-124 143 -66 297 -136 343 -154 l83 -34 32 19 c57 33 554 353 842 543 l280
184 -50 26 c-28 14 -135 65 -239 114 -104 49 -232 109 -283 134 l-94 46 3 56
3 56 73 52 c40 29 78 54 84 56 6 2 -19 49 -57 105 l-68 100 -76 -48 c-66 -43
-83 -49 -128 -49 -47 0 -53 3 -57 23 -3 12 -7 119 -10 237 -9 336 -18 510 -27
510 -4 0 -268 -171 -586 -380 l-578 -380 4 -433 3 -434 -95 -61 c-136 -87
-169 -102 -225 -102 -49 0 -49 0 -56 38 -10 65 -29 741 -23 872 5 133 16 170
54 195 l24 16 -88 71 c-264 211 -494 358 -815 519 -548 275 -1053 417 -1623
459 -130 9 -562 12 -630 3z"/>
</g>
</svg>
