<?xml version="1.0" standalone="no"?>
<!DOCTYPE svg PUBLIC "-//W3C//DTD SVG 20010904//EN"
 "http://www.w3.org/TR/2001/REC-SVG-20010904/DTD/svg10.dtd">
<svg version="1.0" xmlns="http://www.w3.org/2000/svg"
 width="385.000000pt" height="383.000000pt" viewBox="0 0 385.000000 383.000000"
 preserveAspectRatio="xMidYMid meet">

<g transform="translate(0.000000,383.000000) scale(0.100000,-0.100000)"
fill="#000000" stroke="none">
<path d="M1825 3814 c-216 -16 -434 -65 -617 -139 -856 -349 -1337 -1245
-1154 -2148 156 -771 772 -1361 1561 -1498 184 -31 446 -31 630 0 762 132
1363 685 1544 1423 43 174 54 269 54 458 0 189 -11 284 -54 458 -164 669 -690
1203 -1359 1381 -184 49 -440 77 -605 65z m-555 -1125 c25 -5 51 -17 57 -26
16 -20 176 -32 187 -14 5 8 125 11 416 11 291 0 411 -3 416 -11 11 -18 171 -6
187 14 26 35 146 46 236 22 73 -19 113 -64 184 -207 43 -85 64 -144 86 -238
68 -286 126 -677 118 -784 -14 -163 -121 -267 -277 -268 -68 0 -115 19 -169
68 -60 54 -85 103 -136 263 -47 150 -69 201 -86 201 -5 0 -29 -10 -52 -22 -33
-18 -59 -23 -118 -23 -68 0 -81 3 -128 33 l-52 32 -209 0 -209 0 -52 -32 c-46
-29 -60 -33 -124 -33 -55 0 -84 6 -124 25 -52 24 -53 24 -68 5 -7 -11 -35 -85
-60 -165 -54 -171 -80 -226 -130 -276 -102 -102 -262 -105 -375 -6 -49 43 -79
119 -85 211 -7 114 56 526 123 796 29 117 118 305 174 366 55 60 160 83 270
58z"/>
<path d="M2641 2504 c-47 -59 -9 -138 66 -138 44 0 83 40 83 85 0 72 -105 109
-149 53z"/>
<path d="M1126 2455 c-19 -50 2 -113 45 -136 17 -8 27 -5 55 16 33 25 35 30
32 78 l-3 52 -61 3 c-49 2 -63 0 -68 -13z"/>
<path d="M2485 2348 c-32 -17 -45 -39 -45 -75 0 -85 117 -116 155 -42 22 42
18 67 -14 100 -31 30 -62 36 -96 17z"/>
<path d="M2800 2332 c-37 -38 -38 -70 -4 -111 50 -60 144 -28 144 49 0 49 -25
79 -72 87 -32 5 -41 1 -68 -25z"/>
<path d="M1004 2336 c-3 -7 -4 -38 -2 -67 l3 -54 51 -3 c47 -3 54 0 78 28 14
17 26 35 26 40 0 4 -13 22 -29 39 -24 26 -36 31 -75 31 -30 0 -48 -5 -52 -14z"/>
<path d="M1247 2322 c-34 -36 -34 -52 1 -85 22 -22 38 -27 76 -27 l47 0 -3 68
-3 67 -45 3 c-39 2 -49 -1 -73 -26z"/>
<path d="M1151 2226 c-28 -29 -32 -39 -29 -77 l3 -44 65 0 65 0 3 49 c3 42 0
53 -20 68 -49 39 -53 39 -87 4z"/>
<path d="M2680 2173 c-93 -35 -72 -167 27 -167 43 0 83 40 83 84 0 52 -65 100
-110 83z"/>
<path d="M1474 2086 c-61 -27 -99 -104 -84 -171 23 -101 152 -148 238 -86 39
27 67 97 58 145 -18 94 -125 150 -212 112z"/>
<path d="M2265 2086 c-76 -34 -110 -115 -80 -191 21 -58 63 -87 129 -93 56 -4
101 18 138 69 41 55 19 155 -43 202 -34 25 -105 31 -144 13z"/>
</g>
</svg>
