<?xml version="1.0" standalone="no"?>
<!DOCTYPE svg PUBLIC "-//W3C//DTD SVG 20010904//EN"
 "http://www.w3.org/TR/2001/REC-SVG-20010904/DTD/svg10.dtd">
<svg version="1.0" xmlns="http://www.w3.org/2000/svg"
 width="512.000000pt" height="512.000000pt" viewBox="0 0 512.000000 512.000000"
 preserveAspectRatio="xMidYMid meet">
<metadata>
Created by potrace 1.16, written by Peter Selinger 2001-2019
</metadata>
<g transform="translate(0.000000,512.000000) scale(0.100000,-0.100000)"
fill="#000000" stroke="none">
<path d="M1622 4285 c-19 -8 -51 -28 -72 -45 -21 -16 -56 -38 -79 -47 l-42
-18 103 0 c57 0 115 -3 131 -8 l27 -7 0 70 c0 78 -5 82 -68 55z"/>
<path d="M3430 4230 l0 -70 28 7 c15 5 73 8 130 8 l103 0 -42 18 c-23 9 -58
31 -79 47 -40 32 -99 60 -125 60 -12 0 -15 -14 -15 -70z"/>
<path d="M2390 3944 c-802 -43 -1446 -224 -1836 -516 -34 -25 -61 -38 -82 -38
-28 0 -32 -3 -32 -28 0 -20 -14 -41 -51 -77 -62 -62 -132 -164 -166 -247 -38
-90 -38 -213 -1 -315 36 -101 123 -227 218 -316 l80 -75 0 -211 c0 -190 -2
-211 -17 -211 -15 0 -15 -1 0 -18 15 -16 17 -46 17 -210 0 -165 -2 -191 -16
-194 -12 -2 -8 -10 15 -32 l31 -30 0 172 0 172 33 0 32 0 -33 21 -32 21 0 214
0 214 55 0 c41 0 65 -6 93 -24 58 -36 176 -95 287 -142 l100 -42 3 -211 2
-211 -59 0 c-46 0 -81 9 -158 40 -130 52 -92 24 79 -58 l138 -67 0 -172 0
-173 -54 0 c-40 0 -79 10 -153 40 -136 57 -136 57 -58 11 165 -96 419 -196
660 -261 98 -26 348 -81 351 -77 1 1 -10 43 -25 92 -20 68 -27 83 -29 61 l-4
-29 -101 6 c-99 5 -230 30 -444 84 l-103 25 0 169 0 169 58 0 c36 0 87 -10
133 -25 61 -21 242 -70 361 -99 25 -6 26 -4 30 43 l3 49 -54 6 c-66 8 -326 61
-396 80 -27 8 -69 20 -92 26 l-43 11 0 209 0 210 54 0 c31 0 109 -15 180 -35
369 -101 763 -149 1206 -149 443 1 866 54 1212 154 57 17 127 30 156 30 l52 0
0 -210 0 -209 -42 -11 c-24 -6 -65 -18 -93 -26 -70 -19 -330 -72 -396 -80
l-54 -6 3 -49 c4 -47 5 -49 30 -43 119 29 300 78 361 99 46 15 97 25 133 25
l58 0 0 -169 0 -169 -102 -25 c-215 -54 -346 -79 -445 -84 l-101 -6 -4 29 c-2
22 -9 7 -29 -61 -15 -49 -26 -91 -25 -92 3 -4 274 55 351 76 261 72 514 174
685 276 51 31 50 30 -83 -25 -74 -30 -113 -40 -153 -40 l-54 0 0 173 0 172
138 67 c171 82 209 110 79 58 -76 -31 -112 -40 -158 -40 l-59 0 0 208 0 209
125 52 c68 30 167 78 220 107 80 45 103 54 145 54 l50 0 0 -214 0 -214 -32
-21 -33 -21 33 0 32 0 0 -172 0 -172 31 30 c23 22 27 30 15 32 -14 3 -16 29
-16 194 0 164 2 194 17 210 15 17 15 18 0 18 -15 0 -17 21 -17 207 l0 207 78
76 c136 131 218 266 248 412 14 66 13 76 -5 150 -27 105 -80 201 -168 304 -49
56 -73 92 -73 109 0 22 -4 25 -35 25 -25 0 -49 10 -81 36 -225 171 -667 344
-1076 420 -54 10 -98 21 -98 26 0 4 -24 8 -52 8 -29 0 -82 5 -118 10 -192 29
-657 53 -830 44z m625 -129 c88 -7 201 -19 252 -26 l92 -11 3 -47 3 -46 18 33
c17 31 20 32 80 32 112 0 466 -97 687 -187 166 -69 329 -160 428 -240 40 -33
42 -37 42 -89 l0 -54 50 0 c48 0 50 -1 75 -44 53 -90 67 -155 63 -284 -3 -114
-4 -121 -42 -198 -47 -95 -167 -221 -290 -303 -181 -122 -598 -291 -717 -291
l-49 0 0 49 c0 47 2 52 63 110 68 66 117 149 117 201 0 38 -22 93 -55 136 -18
24 -25 45 -25 78 l0 46 -45 0 c-37 0 -62 10 -136 55 -138 83 -346 158 -544
195 -97 18 -94 16 -97 68 l-3 47 -21 -35 -20 -35 -384 0 -384 0 -20 35 -21 35
-3 -47 c-3 -52 0 -50 -97 -68 -198 -37 -406 -112 -544 -195 -74 -45 -99 -55
-136 -55 l-45 0 0 -46 c0 -33 -7 -54 -25 -78 -61 -80 -69 -144 -27 -224 26
-49 125 -162 144 -162 4 0 8 -25 8 -55 l0 -55 -47 0 c-49 0 -219 48 -340 96
-381 151 -623 340 -706 552 -38 96 -11 322 51 422 26 43 30 45 79 48 l52 3 3
56 3 57 68 52 c82 62 251 158 364 208 207 89 599 196 723 196 57 0 60 -1 77
-32 l18 -33 3 46 3 47 97 12 c317 41 851 53 1157 25z"/>
<path d="M345 3703 c-11 -3 -48 -25 -82 -49 -34 -24 -72 -48 -85 -53 -17 -7 2
-10 67 -10 50 -1 105 -5 123 -10 l32 -10 0 70 c0 74 -1 75 -55 62z"/>
<path d="M4720 3642 l0 -71 32 10 c18 5 73 9 123 10 65 0 84 3 67 10 -13 5
-51 29 -85 53 -34 24 -79 47 -99 51 l-38 7 0 -70z"/>
</g>
</svg>
