<?xml version="1.0" standalone="no"?>
<!DOCTYPE svg PUBLIC "-//W3C//DTD SVG 20010904//EN"
 "http://www.w3.org/TR/2001/REC-SVG-20010904/DTD/svg10.dtd">
<svg version="1.0" xmlns="http://www.w3.org/2000/svg"
 width="512.000000pt" height="512.000000pt" viewBox="0 0 512.000000 512.000000"
 preserveAspectRatio="xMidYMid meet">

<g transform="translate(0.000000,512.000000) scale(0.100000,-0.100000)"
fill="#000000" stroke="none">
<path d="M3620 5020 c-342 -48 -675 -191 -960 -413 -96 -75 -272 -250 -350
-347 -144 -181 -270 -404 -339 -604 -65 -185 -111 -537 -111 -848 0 -234 -29
-419 -91 -576 -85 -213 -201 -394 -358 -555 -73 -75 -83 -89 -70 -101 7 -8 68
-60 133 -116 l119 -102 46 50 c59 64 136 127 236 192 97 63 383 205 520 257
l100 37 275 2 c290 1 393 9 605 51 584 113 1091 471 1405 993 283 469 339
1019 145 1427 -154 326 -429 543 -795 630 -84 20 -138 25 -275 28 -93 2 -199
0 -235 -5z m337 -201 c420 -47 737 -312 843 -704 28 -103 38 -354 20 -476 -13
-95 -51 -245 -75 -303 l-16 -39 -60 59 c-32 32 -59 63 -59 69 0 6 38 48 85 95
l85 84 -28 29 -27 29 -87 -94 -88 -93 -127 128 -128 128 230 224 230 224 -27
27 -27 27 -231 -223 -231 -224 -155 155 c-85 84 -153 157 -152 160 2 4 114
111 250 238 260 244 259 243 214 280 -13 11 -52 -22 -265 -223 -138 -130 -254
-236 -258 -236 -4 0 -71 63 -149 141 l-141 141 111 107 c61 59 134 128 161
154 l50 46 -27 28 -28 27 -57 -54 c-32 -30 -104 -100 -161 -155 l-102 -100
-108 108 -108 107 -27 -28 -27 -28 106 -104 105 -105 -163 -158 -163 -157
-146 150 -146 149 -26 -27 -26 -27 141 -148 141 -148 -49 -50 c-27 -28 -102
-101 -168 -162 l-118 -111 -129 130 -128 131 -26 -26 -25 -27 46 -44 c25 -25
82 -84 126 -132 l80 -87 -119 -114 c-65 -63 -136 -129 -157 -148 l-39 -34 -73
78 -73 79 -30 -23 -30 -22 72 -79 c40 -43 73 -83 75 -87 1 -5 -43 -50 -98
-101 l-101 -93 27 -28 27 -28 99 92 c54 51 102 93 107 95 10 3 272 -269 269
-279 -2 -5 -330 -315 -401 -379 -5 -4 3 -20 17 -36 l25 -29 33 31 c18 17 111
103 206 192 94 89 176 162 181 162 5 0 79 -74 165 -164 l156 -163 -63 -59
c-34 -32 -119 -113 -188 -180 l-126 -123 27 -26 27 -26 189 181 188 181 142
-148 142 -148 -31 -32 -31 -33 24 -25 c13 -14 21 -27 18 -30 -14 -14 -196 -27
-303 -22 -261 13 -486 102 -652 260 -89 85 -148 164 -203 275 -121 241 -132
593 -29 902 151 453 504 856 944 1077 289 146 573 203 852 172z m-214 -787
c-39 -37 -115 -107 -169 -157 l-97 -90 -139 145 -139 145 163 157 163 157 145
-145 145 -145 -72 -67z m285 -145 l154 -154 -169 -162 -168 -162 -152 158
c-84 87 -152 161 -153 164 0 8 321 309 330 309 3 0 74 -69 158 -153z m-746 -7
c73 -77 134 -144 134 -148 1 -4 -72 -76 -163 -161 l-165 -154 -141 142 -142
142 165 159 c91 87 168 159 172 160 3 0 66 -63 140 -140z m346 -681 l-163
-157 -161 160 -161 160 91 87 c50 47 125 119 166 159 l75 73 158 -162 158
-162 -163 -158z m700 54 l-166 -166 -131 134 -130 134 167 162 167 162 130
-130 130 -129 -167 -167z m-1435 249 l138 -138 -158 -147 c-86 -81 -160 -147
-164 -147 -4 0 -66 63 -139 140 l-133 141 149 144 c82 79 154 144 159 144 6 1
72 -61 148 -137z m1729 -209 c38 -37 68 -74 68 -82 0 -34 -189 -340 -238 -384
-17 -16 -24 -10 -127 93 l-110 110 165 165 c91 91 167 165 170 165 2 0 35 -30
72 -67z m-1377 -460 l-160 -155 -157 164 c-87 89 -157 166 -155 171 1 4 72 72
157 152 l155 144 160 -160 160 -161 -160 -155z m835 168 c-16 -20 -88 -94
-160 -166 l-131 -130 -135 140 -134 140 161 158 162 159 133 -133 133 -133
-29 -35z m192 -138 l107 -107 23 20 c12 10 0 -8 -27 -40 -122 -145 -360 -328
-555 -426 -136 -69 -395 -157 -435 -148 -9 2 69 89 194 218 l209 215 76 -75
76 -75 27 28 28 27 -74 74 -74 74 154 161 c85 89 156 161 159 161 2 0 53 -48
112 -107z m-675 -65 c73 -73 133 -137 133 -141 0 -5 -69 -81 -152 -169 l-153
-160 -144 148 -144 148 159 152 c88 84 161 153 164 154 3 0 64 -60 137 -132z"/>
<path d="M1138 1461 c-26 -10 -65 -32 -86 -47 -21 -16 -233 -229 -470 -474
-468 -483 -489 -509 -499 -619 -7 -71 8 -120 50 -168 40 -45 82 -63 150 -63
70 0 131 22 190 68 27 20 242 237 478 481 474 492 480 499 487 623 5 84 -20
143 -78 183 -54 37 -153 44 -222 16z"/>
<path d="M2634 1325 c-140 -30 -292 -141 -367 -266 -137 -230 -101 -515 88
-705 129 -129 307 -191 479 -168 25 4 46 10 46 13 0 13 -90 113 -135 150 -24
20 -91 61 -147 91 -190 102 -282 221 -282 366 0 62 4 81 37 147 144 291 436
320 622 62 23 -33 80 -96 126 -140 85 -81 155 -125 206 -128 28 -2 28 -2 25
58 -14 338 -358 594 -698 520z"/>
<path d="M2579 1080 c-46 -24 -121 -107 -149 -164 -53 -110 -31 -204 69 -299
32 -31 90 -71 132 -92 137 -69 245 -160 314 -263 l28 -42 61 33 c90 47 195
157 239 248 20 41 39 90 42 111 l7 36 -54 16 c-115 34 -228 124 -344 272 -97
124 -160 164 -256 164 -32 -1 -67 -8 -89 -20z"/>
</g>
</svg>
