<?xml version="1.0" standalone="no"?>
<!DOCTYPE svg PUBLIC "-//W3C//DTD SVG 20010904//EN"
 "http://www.w3.org/TR/2001/REC-SVG-20010904/DTD/svg10.dtd">
<svg version="1.0" xmlns="http://www.w3.org/2000/svg"
 width="260.000000pt" height="320.000000pt" viewBox="0 0 260.000000 320.000000"
 preserveAspectRatio="xMidYMid meet">

<g transform="translate(0.000000,320.000000) scale(0.100000,-0.100000)"
fill="#000000" stroke="none">
<path d="M1557 3090 c-56 -44 -56 -129 -1 -181 20 -19 37 -24 74 -24 37 0 54
5 74 24 83 78 37 201 -74 201 -32 0 -55 -6 -73 -20z"/>
<path d="M2110 2695 c-12 -19 -26 -35 -31 -35 -6 0 -16 -15 -24 -34 -17 -40
-108 -107 -226 -166 -43 -22 -83 -48 -88 -58 -16 -31 -126 -66 -258 -82 -42
-6 -94 -19 -115 -30 -36 -19 -78 -27 -78 -15 0 3 7 16 15 28 13 20 13 27 -4
62 -10 22 -21 48 -25 58 -3 9 -15 17 -29 17 -13 0 -27 4 -33 10 -5 5 -31 16
-58 24 -49 15 -49 15 -87 -16 -43 -34 -52 -54 -52 -111 0 -31 8 -46 37 -76
l37 -38 -42 -6 c-43 -6 -48 -4 -109 28 -19 10 -52 27 -72 38 -21 10 -38 23
-38 29 0 16 120 130 181 171 85 59 109 122 76 200 -7 15 -18 27 -25 27 -7 0
-18 -12 -24 -27 -9 -23 -12 -25 -15 -10 -6 25 -33 3 -33 -27 0 -11 -11 -43
-24 -69 -19 -37 -44 -62 -111 -109 -111 -79 -175 -136 -175 -155 0 -27 37 -67
124 -133 47 -36 86 -73 86 -82 0 -10 14 -21 38 -28 64 -21 102 -50 127 -99 13
-25 46 -65 74 -89 49 -41 51 -45 51 -94 0 -39 6 -57 24 -79 22 -26 23 -32 12
-54 -11 -21 -11 -34 2 -80 14 -51 14 -56 -2 -74 -17 -18 -17 -22 -2 -43 9 -12
16 -29 16 -37 0 -20 -81 -194 -94 -203 -6 -4 -26 -8 -44 -8 -19 0 -46 -9 -62
-20 -33 -23 -116 -60 -136 -60 -8 0 -14 9 -14 19 0 10 -7 22 -16 25 -36 14
-58 4 -102 -44 -25 -27 -51 -50 -58 -50 -15 0 -68 -60 -90 -101 -13 -25 -13
-36 -4 -59 7 -16 18 -31 25 -34 17 -6 93 32 105 53 5 10 35 33 67 53 l58 36
160 4 c155 4 163 6 214 34 36 19 63 43 81 72 14 23 29 39 33 36 4 -4 7 -40 7
-79 0 -92 -18 -119 -90 -134 -70 -15 -126 -45 -190 -104 -69 -63 -127 -99
-158 -100 -13 0 -37 10 -52 22 -16 11 -32 21 -34 21 -13 0 -47 -84 -53 -127
-3 -27 -19 -74 -34 -105 -51 -102 -31 -139 35 -65 23 25 64 57 92 71 29 14 55
35 61 49 15 32 107 84 260 146 65 27 132 56 148 65 17 9 37 16 46 16 8 0 34
16 57 35 29 26 43 47 48 73 4 20 15 54 25 74 37 74 57 203 60 388 2 129 -1
183 -11 207 -13 29 -12 34 14 73 l27 41 -21 33 c-11 19 -18 41 -14 49 3 9 -1
26 -10 39 -9 12 -16 34 -16 48 0 14 -9 43 -19 65 -11 22 -26 64 -34 93 -15 51
-15 53 6 73 12 12 40 30 62 41 22 11 43 26 47 33 5 7 52 30 105 50 94 36 102
42 193 134 52 53 121 120 153 149 43 39 57 57 52 71 -4 14 1 20 20 25 14 4 25
13 25 21 0 8 6 15 13 15 7 0 13 9 13 20 0 15 -7 20 -27 20 -20 0 -33 -9 -49
-35z"/>
</g>
</svg>
